/* XPM */
static char *_b83978b28d84160f16f591dc312222cT7hPznUdu1oILwOY[] = {
/* columns rows colors chars-per-pixel */
"64 64 254 2 ",
"   c #171B3B",
".  c #09142D",
"X  c #1A2539",
"o  c #102131",
"O  c #242A3B",
"+  c #2C3738",
"@  c #17191C",
"#  c #463238",
"$  c #324539",
"%  c #50533C",
"&  c #1A2544",
"*  c #1D3651",
"=  c #252A46",
"-  c #293649",
";  c #363749",
":  c #293856",
">  c #353B55",
",  c #1F2C56",
"<  c #473D57",
"1  c #38474B",
"2  c #3A4557",
"3  c #384E4D",
"4  c #3A4663",
"5  c #375068",
"6  c #474959",
"7  c #495659",
"8  c #555657",
"9  c #4C4E51",
"0  c #675958",
"q  c #6C564E",
"w  c #566958",
"e  c #526D51",
"r  c #76655A",
"t  c #64695B",
"y  c #464B66",
"u  c #4A5768",
"i  c #575A68",
"p  c #4A5874",
"a  c #565C75",
"s  c #534B6A",
"d  c #6A596D",
"f  c #586569",
"g  c #5C746A",
"h  c #4C6679",
"j  c #586578",
"k  c #5C7477",
"l  c #4C6569",
"z  c #67686B",
"x  c #776A69",
"c  c #78746B",
"v  c #656A77",
"b  c #746A78",
"n  c #697578",
"m  c #777678",
"M  c #647669",
"N  c #86755A",
"B  c #87796A",
"V  c #847B78",
"C  c #916E6C",
"Z  c #9B646E",
"A  c #CC7B78",
"S  c #75905B",
"D  c #77857B",
"F  c #6C876A",
"G  c #87857B",
"H  c #9A8D7D",
"J  c #948879",
"K  c #9B937C",
"L  c #8B866E",
"P  c #A5917D",
"I  c #586782",
"U  c #4F6889",
"Y  c #636984",
"T  c #776989",
"R  c #687787",
"E  c #767986",
"W  c #6A7792",
"Q  c #6A7091",
"!  c #60618B",
"~  c #85798A",
"^  c #8E718E",
"/  c #AD7389",
"(  c #CA7497",
")  c #6A8389",
"_  c #798589",
"`  c #788896",
"'  c #79949A",
"]  c #738D90",
"[  c #798EA4",
"{  c #75B2AD",
"}  c #6EA49A",
"|  c #8D8A83",
" . c #8C8A8A",
".. c #888585",
"X. c #938C84",
"o. c #9B8E83",
"O. c #948C8B",
"+. c #958988",
"@. c #899488",
"#. c #9E9283",
"$. c #94928B",
"%. c #9C948B",
"&. c #9D9A8D",
"*. c #959585",
"=. c #888B94",
"-. c #938C96",
";. c #889797",
":. c #939493",
">. c #9B9492",
",. c #9C9C93",
"<. c #9C9C9B",
"1. c #959899",
"2. c #A29484",
"3. c #A29689",
"4. c #A39B8C",
"5. c #AA9C8C",
"6. c #A59A85",
"7. c #A49D93",
"8. c #AA9D92",
"9. c #A49A97",
"0. c #B6928F",
"q. c #9CA294",
"w. c #9BA69B",
"e. c #92A794",
"r. c #A8A28D",
"t. c #B4A68D",
"y. c #A3A295",
"u. c #ABA293",
"i. c #A3A49C",
"p. c #ACA49B",
"a. c #ACAB9C",
"s. c #A5AA9B",
"d. c #B2A594",
"f. c #B3AB9C",
"g. c #B7AB97",
"h. c #ACB29A",
"j. c #B9B59A",
"k. c #BCB28E",
"l. c #8797A6",
"z. c #979CA4",
"x. c #AD95A4",
"c. c #8CA7A7",
"v. c #9CABA4",
"b. c #98A9A9",
"n. c #9CB3AC",
"m. c #98B6AA",
"M. c #96ABB5",
"N. c #9CB4B4",
"B. c #9DBBB4",
"V. c #9DBCB9",
"C. c #97B6B7",
"Z. c #87B7AF",
"A. c #A3A4A3",
"S. c #A3ACA3",
"D. c #ABACA3",
"F. c #A7A9A9",
"G. c #B4ADA5",
"H. c #A4B2A5",
"J. c #ABB2A3",
"K. c #A3B3AB",
"L. c #ACB3AB",
"P. c #A7BAAC",
"I. c #B3B3A4",
"U. c #BAB4A4",
"Y. c #B4B4AB",
"T. c #B4BAAB",
"R. c #BBBCAD",
"E. c #BBB9A6",
"W. c #A3BBB4",
"Q. c #A2BDBB",
"!. c #A8B8B5",
"~. c #BCBBB2",
"^. c #B4B7B4",
"/. c #ADAFB1",
"(. c #C98F92",
"). c #C4A89A",
"_. c #C7B99B",
"`. c #CEB894",
"'. c #D38FA8",
"]. c #F094A8",
"[. c #C3BDAC",
"{. c #C5BAA5",
"}. c #D4BEA3",
"|. c #C6B4AD",
" X c #9BC3B7",
".X c #9DDBB6",
"XX c #A3C2BA",
"oX c #A8C3B7",
"OX c #BBC3B4",
"+X c #B8C6B9",
"@X c #B6C8AD",
"#X c #A0C49C",
"$X c #CFC29B",
"%X c #C9C4AA",
"&X c #D3CBAD",
"*X c #D7C8A8",
"=X c #D7D2AB",
"-X c #C3C4B4",
";X c #C4CCBA",
":X c #C9C9B6",
">X c #D3CCB3",
",X c #DACDB4",
"<X c #D4CBB8",
"1X c #CBD2BB",
"2X c #DCD3B4",
"3X c #D4D2BB",
"4X c #DBD4BC",
"5X c #D9D6B8",
"6X c #E5D4AC",
"7X c #E3DBBB",
"8X c #E7D8B8",
"9X c #F5DDBA",
"0X c #EACFB0",
"qX c #DBE3BB",
"wX c #EAE4BA",
"eX c #F6E7BA",
"rX c #F7EAB5",
"tX c #9EB8C3",
"yX c #A4BEC2",
"uX c #B9BEC6",
"iX c #CEBFC4",
"pX c #99C7CB",
"aX c #A9C6C6",
"sX c #BACAC4",
"dX c #AFCDD0",
"fX c #C4CCC3",
"gX c #CAD5C5",
"hX c #D7D9C5",
"jX c #D3D7CF",
"kX c #ECDEC2",
"lX c #E4DBC5",
"zX c #F9DEC5",
"xX c #DBE5C8",
"cX c #DCE3D3",
"vX c #ECE3C3",
"bX c #E8E6C9",
"nX c #F3E4C4",
"mX c #F3EBC4",
"MX c #FBECC3",
"NX c #F4EBCB",
"BX c #FCEDCB",
"VX c #F4E5C9",
"CX c #FEF3C4",
"ZX c #FDF3CC",
"AX c #FDFBCC",
"SX c #F8F6C8",
"DX c #E9E9D6",
"FX c #F6EDD3",
"GX c #FCF4D2",
"HX c #FEFBD4",
"JX c #FFFCDB",
"KX c #F8F4D8",
"LX c #ECF7D4",
"PX c #FFFDE2",
/* pixels */
"#.#.#.#.#.#.#.#.K 2.2.#.2.3.#.2.#.2.2.2.2.#.#.2.#.2.2.3.2.2.3.3.3.3.2.3.2.2.3.2.2.3.3.#.6.K H 3.t.2.2.2.H 2.3.2.2.2.2.2.2.2.2.3.",
"#.#.#.#.#.#.#.#.#.#.2.5.#.#.2.o.#.2.2.2.2.#.#.2.2.2.2.2.2.2.2.2.2.2.3.3.2.2.2.2.2.#.2.3.2.3.J j.2Xd.K #.2.2.3.2.2.2.2.2.2.2.2.2.",
"#.#.#.#.#.#.#.#.#.4.#.#.o.#.3.3.#.#.#.#.2.2.2.2.2.2.2.2.2.2.2.2.3.3.3.4.3.3.3.2.2.6.2.2.4.o.>X8X%Xu.K #.2.2.2.2.3.2.2.2.2.2.2.2.",
"#.#.#.#.#.#.#.2.3.#.#.2.6.6.2.H #.#.#.#.#.2.2.2.3.3.2.3.3.3.3.3.3.#.3.3.3.3.3.2.#.2.6.2.5.{.FX*X#.#.#.2.K 2.2.2.3.2.2.2.2.2.2.2.",
"#.#.#.#.#.#.#.#.3.J g.,X7X7X,Xt.2.#.#.%.%.3.4.3.4.3.3.4.7.7.7.7.y.4.4.4.3.4.3.3.4.%.3.#.g.VX_.5.H #.2.#.2.3.6.2.2.2.2.2.2.2.2.2.",
"#.#.#.#.#.#.#.#.J j.GXZXMXmXvX&X3.#.*.&.,.7.y.y.y.i.i.i.i.S.S.S.S.i.s.s.i.s.y.y.i.i.,.4.vX&X#.>.4.3.%.2.2.3.3.2.2.2.2.2.2.2.2.2.",
"#.#.#.#.#.#.#.o.2.kXGXMXCXAXZX7Xf.4.&.w.w.v.S.S.S.H.K.K.K.P.W.W.n.n.W.P.K.K.v.K.v.K.v.S.fXq.i.w.7.,.&.4.3.2.#.3.2.#.2.2.2.2.2.2.",
"#.#.#.#.#.#.o.o.d.FXBXZXCXZXZX7XE.y.q.S.v.v.n.n.P.W.W.B.B.B.V.XXM.c.Q.Q.B.Q.N.W.V.n.n.c.f !.H.S.i.i.y.,.4.&.#.%.2.2.2.2.2.2.2.2.",
"#.#.#.3.3.o.H J r.FXGXMXAXZXZXBXMXNX:Xv.n.N.m.B.K.W.V.V.XXB.Q. Xc.M.XXW.yX XW. XW.tXB.;.f n.yXm.n.P.H.A.i.i.q.&.3.#.2.3.P 2.2.2.",
"#.H H #.J 6.{.%Xg.vXGXZXZXMXZXGXGXFXbX;XfXK.+XgX;XH.oXB.m.n.B. Xc.M.XXn.yXV.W.B.W.V.N.z.E c.aXB.W.W.W.P.K.H.S.&.&.%.%.#.3.2.2.#.",
"#.4.j.[.%X2XGXHXMXBXMXMXZXZXZXSXMXMXZXNXGX7XNXZXFXDX+X+XsX+XoXaXb.l.aXW.yXB.W.Q.Q.B.M.!.=.l.XXQ.Q.V.C.m.oXgXhX:X7.&.%.#.3.#.3.3.",
"4.f.f.f.j.j.j.j.OXR.R.OXOX+X+X@X+X+X+X+XsX+XfXfX;XOX+XsXsXsXsXsX[ ` W. Xb.m.V.N.N. XN.F.E l.XXB.P.B.V.W.bXCXZXNX%X3.3.#.3.o.o.2.",
"%.3.*.*.4.&.,.y.w.v.K.K.W.N.N.Q.V.XXB.B.W.XXN.Q.B.XXaXV.B.XXQ.B.[ l.W.V.oXoXaXW.tXXXn./._ l.XXV.B.C.C.+XGXCXCXGX7X2.6.K 2.5.3.3.",
"%.*.%.7.<.<.F.F.H.H.S.S.K.!.P.W.V. XV.c.c.c.c.c.M.M.M.C.aXXXm.' ' ) ] C.b.e.pXn.C.N.b.^.` l.aXXXC.aX+X:XKXGXSXAX8X_.%Xd.H #.#.#.",
"%.%.%.,.q.w.K.K.N.W.W.W.W.W.Q.Q.Q.Q.!.=.m z -...E f v v N.W.] uXtX=./.7 z...) S.R n H.E E ;.dXoX;XDXHXBXGXGXZXZXFXDXKX4Xd.3.2.3.",
"*.7.&.q.H.H.P.W.Q.W.W.oXW.W.XXW. XB.W.b.z 9  .$.z 8 z 7 b.aX' M.' =.b . 0 ~ ' ,.O O A.m E c.yXsXgXfX;X;X+X+XfXfX:X:X-XE.I.d.5.2.",
">.7.w.H.K.P.oXQ.aXXXoXaXaXXXaXXXyXN.b...z 9 m V s 6 8 1 l.N.[ c.` E D.; i.m R Y.i z ~.f s ' dXoXtXV.yXXXB.yXV.B.N.Q.oXK.w.,.r.3.",
"%.i.S.K.W.N.c.W.B.Q.dXW.m.M.Q.aXC.n :.G | +.O.X.O...|  .>.$.O.4.:.X.5.D.A.%.=.4.j.a.g.@. .D c.aXXXC.m.tXoXB.oXQ.W.N.b.!.H.i.4.3.",
"&.w.H.K.Q.R 7 F c.oXM.] w k P.oXc.,.2X=XkXkX0X=X=X2X,X7X_.nXeX8XvXkX6X=X,X6X=X}.(.0.(.|.).G.c.aXQ.] u g l.oXN.] l l N.^.S.S.7.7.",
",.w.H.v.n.N.g e w M.@.S 3 Q.Q.aXM.G.0X$XvXMX6XwX,X}.,XJX&.y.%Xj.j.$X{.{.nXzX,X0X(.0.A (.(.g.c.oXP.+XR e e l.;.S 3 c.sXv.L.S.y.7.",
"q.q.H.!.Q.b.l.p + f F 9 [ W.oXdXC.h.*XeXHXkXnXNX7XwXeXJXE = f v b m b >.eXrXmXHXkXvXzX9XeX).c.sXdXN.M.I $ 7 S 7 n Q.!.+X^.S.a.s.",
"A.H.K.W.D e t w   o o 2 M g g W.M.j.HX&Xc .. ._ _ %.eXwXm u D.i./.a.9.$.CX8X=.=.@.G ..E.AX%XZ.dXD e g t & X o - n f M v.P.J.J.y.",
"s.S.+Xv 3 u + - w + 3 O X 2 3 u tXJ.JXY.- > : > - i vX8Xm i i ; > 6 p.f.BX%XX : ; ; = 9.AX%XC.' u g : + e $ 3 1 O 3 1 3 K.L.J.s.",
"D.L.H.@.b.c.w S e . w e 2 ) oXb.M.h.AXU.f ' k E ` _ eXeXm v > . . X bXmX9X_.l ;.R _ ` T.wX9.N.!.!.v.g S S o % M 1 n !.=.n.^.D.a.",
"S.S.^.+XoX@.F e + # - e 7 w W.gXoXU.AXE.l [ T l v _ NXAXm a 6 X & > a._.*X&.y ` j I v @.>X{.n.jXsX' S e 3 # - w l l n.gXOXT.J.D.",
"H.T.OXOXH.w $ $ ; q & $ + $ n cXXXD.JXA.Y ] m v E b [.CX@.6 6 j n v -.9.7.&.v a I Y v f V :XK.xXS.l 2 3 2 q o 1 1 1 M fX+X-XD.s.",
"J.@XOXfX:.9 ] 3 O r   = n @.7 hX+XR.GX;Xh.h.p.0.8.>.}.HXD p y U W Y T.:X-X%Xf.d.7.8.p.1.9.[.P.cX:.l l.3 O N X X j ;.8 +X;XR.OXJ.",
"@XOX+XgXJ.sX!.- 6 % X & n cXF.hXfXI.-XdXdXpXpXHXrX$X9XZX_ a i j ) j 1.z.1.:.A.I.D.D.D.l. .%XP.DXL.fXL.$ 1 r = O z jXL.1X1X:X-XT.",
"T.;X;X;XgXgXL.9 ^.@ D ` n cXjXxX+Xy.1X} } Z.{ XX6X*X*X8Xm : 6 4 7 ` - > > 4 4 : 4 : : , 6 | +XDXhXcX+X9 sX# v ;.M jXhX1X1X:X-XT.",
"+X;X;X;X1XhX1Xh.1X0 T.+X+XqXlXxXsX#.=X XZ.C.Z.{ <X7X0XwXz : i 6 : y v 9 m 8 i t i 8 8 y 6 9 ^.bXhXcX1XL.xXc &.fXR.hX1X1X1X:X:XT.",
"OX;XhX1XhXhXxXxX3X0 I.xXbXqXkXbX1Xs.%X|.7XLXLXSXAXHXeXAX_ > hX7XR.b = Q 9.eXeXeX8XnX9XE.G O.+XbXcXhXqXqXbXr K bXhXhXhXhX:X1X-XE.",
"1Xh.y.hX:Xh.1XbXhX0 [.FXwXbXVXbX3X{.CXj.v n c R v m VXAXm 2 2.VX9XNXq.: Y q.c T v b c y.%Xj.^.NXbXvXbXlXDXB 3.DXhX:Xs.;XhXh.E.%X",
"hXOXD ;.@.@.bXNXlX8 %XKXbXvXNXNX4Xg.2XD.2 p 4 y 4 j wXBXm w 6 = - < CX$X; I - 5 p 5 : A.wXt.:XFXVXvXbXvXGXB 7.NX7XcX@.@.s.D gX8X",
"@X;.g j Y ] w.vXvX0 %X7X%X:XE.5X%Xd.8X~.I [ ) ` [ ;.6XZXm v 6 . . = wXCX<X+ a Q R ` ) /.PX{.>XCXnXvXFXVXGXB 7.JXxXs.;.j j ] e.:X",
"I.] F g j j w.5XVXr >X5XY.D.^.F.G.U.JXI.j l.R E ' ` eXCX .u y y a a ..O.9...& U j u f z #.[.&XAXVXmXGXNXHXB 8.PXhXJ._ n k n :.G.",
"DXe.g g n n P.JXvX0 >X5XY.<.v l.n %.AXu.z _ E c ) E *XAXG u y k ` E L.-XU.U.z 1 Y v 1.F.y.-X3X5X%X%X>X>XGXB 4.JXZX+X) _ m ) v.nX",
"&X:.R v i ] q.mXNXq >X3X~.z.2 a i X.ZXE.Y.y.V u.t.p.P eXG p y a ) j ^.~.U.{.7.9.i v ~  .s.<X3X<XG.I.I.:XJXL a.JXBXv.;.n v R ;.4X",
"lXbXz._ n D.AXHXVX0 4X3XY.1.E l.8 &.r.r 8.{.5.k.9X).0.9X@.5 j U j [ a Y I Y W Q k a Y a a <.hX3X/.Y.Y.-XJXc u.HXmXGXT._ E ..DXbX",
"vXvXbXH.gXJXGXSXnXq >XhXY.F.b 1.uX&.[.o.B k.4X*X&Xd.).6Xn & 1 - - y u 2 M 7 u u 2 2 2 : p 8 3XhXY.~.T.-XJXB y.JXFXCXGXcXi.NXNX[.",
"bXwXHXw._ U.mXJXvX0 3XhXG.~.^.$.D.p.>Xp.%XwXvX7Xm.n.<XnXm s a.%.<.7 5 Q %.}.0X6X{.0X9Xf.v x hXhXI.I.I.E.KXB 7.PXAXwXE.:.^.DXE.3X",
"wXVXNXD.*.r.a.A.hXx 2X3XL.Y.~.R.+X%XbXJ.+XH.sXb.Z.L.%XvX..2 -X8XCXBXL > Q hX%Xg.D.U.I.I.|.).3X3XI.Y.Y.~.FXB g.DXF.f.D.<.F.3XbXFX",
"vXvXGXD.hXJXPXA.[.0 2XhXL.Y.Y.R.[.J.'.^ (./ / 0./ '.F .Xm f 7 6 9 z DXa.- W > = > 2 O X.6X_.J.-XI.G.Y.D.FXB d.:X:.vXlXT.L.HXNXvX",
"wXVXHXD.3XZXKX,.[.x ,XhXL.Y.^.^.i.] x.Z (./ ( N Z / ~ gXG z 6   j u &XAX{.u U I ` W [ ^.eX_.=.H.s.i.D.A.KXV {.~.,.vXVXhXY.JXSXNX",
"VXNXSXI.&XAXVX| [.x &X:Xv.i.A.F.;.E 0.0.( '.].x.].^ / )._ a 6 2 l.R ~._.}.x > W U j Y E *X_.$.!.i.9.i.F.bXB f.^...NXKX3XY.HXnXVX",
"nXNXHXY.>XZXNX:.%Xx 2X:XA.:.1.<.z.R x ].'.Z Z '.(.(.].8.) y 6 U k Q <.u.o.H V 1 U b d.L B fX-.F.s.A.7.F.4Xr 4.L.<.lX,XU.~.HXNXFX",
"BXNXAXI.4XHXDXF.[.r ,X:XA.$.:.:.>.m._ ( d 5 h v j ^ ^ s.] s < h ) E U.-XR.j.{.a.s Y =.E.5.D.@.h.D.G.Y.Y.DXV U.-X,.GXJX4XE.HXMXmX",
"BXBXAXT.>XvX[.;.%Xx ,X:XA.9.,.<.@.a.H.' #X@X@XeX$XE.#XSXG p i I W E <.z.1.:.z.^.9.u W R m A.=.s.i.D.D.s.DXB g.-X*.HXHX>XE.AXMXZX",
"MXBXAXJ.4XVX{.=.E.r ,X:X,.,.>.i.-.m ..3.&.X.o.+.X.2.o.V u 5 5 4 2 5 2 : : : * : * 2 > : - 2 l.a.s.D.D.s.bXB t.:XY.JXJX5XR.GXBXVX",
"BXrXJXY.3XvXT.;.OXr &X:Xi.,.1.$...9.y.4 u i p 6 s u i h.m . X   X o     9 6 v z i j f 8 s s ;.J.s.F.v.q.DXB g.+XI.HXKXhXT.SXeXGX",
"MXeXHXJ.<XnXI.;.-Xq &X:X9.>. .&...{.>X. 2 u p u p 4 u lXT - j a 4 p * z 7Xg.8.|.f.U.D.{.9Xg.2 a a T a z.lXN d.+X^.ZXZX5Xs.JXGXVX",
"SXSXJXE.3XZXwXI.~.r >X-X<.D.A.a.| d.,X; =.~ ~ ~ W ) E 5.~ 7 2 a ~ ` v $.&Xh.) h h l h =.6.$.& > R j a z.KXN j.sXY.JXGX4XG.ZXMXMX",
"Q Q R v z.FXVXi.fXC a.7.m m E E v D.f.> ~ ^ T b _ ;.D 4Xx.6 y a >.=.=.D.6X%X..] _ _ =.f.`.*.- : Y E I ;.jXV #.uX .Y.A.s.T.AXrXrX",
"h p h n f i.3X1.v.0 c m v v E i v O.G s T b T ^ ~ =...E.b 7 u v z.;.;.~.6X`.U.| V O...}.rXj.X : n v m @.O.x V =.j _ b.@.F.bXNXNX",
"h u j j a i -.v n 0 z m f a v u 7 9.4.< ^ b T ^ T T E z u u j j z.c.=.I.=XL m v m G ..9.`.U.. > X X m - u m   e.z.@ - n =.@. .x.",
"= y 6 a m V V G ..q i b v i 8 u 3 D &.O E ~ ~ ^ b ~ E w 2 2 y j b.F.@.j.MX,Xf.).).k.j._.6Xu.v i X v i . = m   7 kXG > 6 b | m V ",
"G J 3.&.K 2.#.L G q b m M f 9 7 ; c K O =.1.:. .:.>.O.&.6 ; y I b.b.1.~.r.X.#.6XwX8 ~ G.).8X5X<X2X*X%X>Xf.f.2XI.5.j.E.lX8.V %.K ",
"4.G x t 0 c J P o.q J #.J x 8 8 $ 8 V + V O. .:.X.,.V ..6 6 ~ -.1.:...m 8 9 # V  .8 z z d O.6 6 | 9.9.9.p.V +.O.a 6 ; m 0 0 4.2.",
"2.H X.%.7.6.t.).`.`.`.$X6X$X*X%X_.&X,X*X8XvXvX%X4Xa.0 a._.=XmX7X&XVX4Xj.2X2X%X*X_.y.E u R - i j ; f z i i 6 6 6 X E i z m X.#.K ",
"H H 2.2.5._.}.}.}.0X9X}.0XVX>X{.,XkXnX9XkXkX*X*X2XU.~ A.&XwXwXg.*XnXvX_.VXnXnXnX9XG.E ; = X u u X = = - = > 2 y 6 d z V O.+.J 3.",
"g.j.%X2X8X*X$X`.&X7X2XvX%Xt.{.:X2X7X&X7X2Xg.4XbX7X5XFX>X3XbXhXlXvXvXDX>X&X&X&XlXwX2X{.kXkXkX,X<X8XVXkXnXkX7X&X7XNXvX7X_.%X,X*Xt.",
"z m >.9...V V O.O.| | G c G | O.+.X.+.X.c | i.$.>.%.X.V -.-.9.%.&.X.%.X.G &.$.%.:.<.G V 2.o.3.9.O.O.O.%.$.>...x G *.X.,.G V >.G ",
"G | $.X.G | X.| X.G X.G | %.X.+.+.....O.O.O. .O.| X.+.G | O.G J O.O.+.+.O.>.>.+.+.G &.X.$.X.%.%.o.3.2.J J o.X.o.| >...X.O.| | X.",
"y.7.7.y.p.7.7.7.8.u.8.u.u.u.5.u.d.8.5.5.u.r.d.u.d.u.y.f.u.u.u.f.5.d.5.8.u.5.u.u.d.d.4.a.y.p.u.u.u.r.r.d.d.d.u.5.d.8.f.8.u.d.d.5.",
"2.3.4.4.3.7.8.3.4.7.7.4.3.4.4.3.7.7.7.4.4.4.4.r.8.8.u.4.4.8.u.5.y.4.8.8.8.u.4.u.y.7.y.8.8.8.u.5.7.u.3.8.4.4.4.8.5.5.#.u.4.7.4.7."
};
