/* XPM */
static char *f3b6b1d9664c4b3dc49147aa1044c1e7JoCPRuwBWoic41eA[] = {
/* columns rows colors chars-per-pixel */
"64 64 256 2 ",
"   c #020302",
".  c #010B01",
"X  c #040308",
"o  c #031804",
"O  c #0D0F0E",
"+  c #2A0404",
"@  c #350210",
"#  c #042803",
"$  c #043804",
"%  c #032815",
"&  c #172A18",
"*  c #16361A",
"=  c #10360E",
"-  c #2A3211",
";  c #083826",
":  c #173927",
">  c #0F302F",
",  c #313C30",
"<  c #1A062F",
"1  c #460403",
"2  c #4F0C07",
"3  c #660B03",
"4  c #672B16",
"5  c #4E372B",
"6  c #59251F",
"7  c #034705",
"8  c #06481B",
"9  c #125012",
"0  c #304A14",
"q  c #316C11",
"w  c #074727",
"e  c #184828",
"r  c #065628",
"t  c #18582B",
"y  c #164835",
"u  c #135735",
"i  c #254827",
"p  c #285429",
"a  c #254A37",
"s  c #355835",
"d  c #325030",
"f  c #156530",
"g  c #326930",
"h  c #07630C",
"j  c #4C5012",
"k  c #615E0E",
"l  c #536A10",
"z  c #696C0C",
"x  c #4C5232",
"c  c #6E4C30",
"v  c #487929",
"b  c #4F6E32",
"n  c #6D702E",
"m  c #3D3D45",
"M  c #3C544B",
"N  c #3D7245",
"B  c #025042",
"V  c #4F554D",
"C  c #69584D",
"Z  c #476346",
"A  c #547050",
"S  c #6C7151",
"D  c #5C6E69",
"F  c #656A64",
"G  c #6A7666",
"H  c #77796A",
"J  c #797C79",
"K  c #6E7272",
"L  c #615F60",
"P  c #8B3E1B",
"I  c #94510C",
"U  c #996404",
"Y  c #A56606",
"T  c #A8760F",
"R  c #AB7636",
"E  c #915C2E",
"W  c #917253",
"Q  c #AB7A4E",
"!  c #88776A",
"~  c #947C6A",
"^  c #897B79",
"/  c #927D76",
"(  c #A37D62",
")  c #805A47",
"_  c #C47F58",
"`  c #36811D",
"'  c #52940E",
"]  c #58A70B",
"[  c #64B510",
"{  c #528C31",
"}  c #638A3C",
"|  c #6E8C33",
" . c #6FB430",
".. c #639418",
"X. c #578545",
"o. c #538C4A",
"O. c #6C9847",
"+. c #718E51",
"@. c #7BA747",
"#. c #71A054",
"$. c #798567",
"%. c #798879",
"&. c #728F6F",
"*. c #869237",
"=. c #B38238",
"-. c #B08529",
";. c #97A72A",
":. c #C0843B",
">. c #869A58",
",. c #8E9250",
"<. c #B3895A",
"1. c #B68E4F",
"2. c #85AA5A",
"3. c #99B859",
"4. c #95AB4F",
"5. c #A9B757",
"6. c #899467",
"7. c #888678",
"8. c #968376",
"9. c #86947B",
"0. c #97956E",
"q. c #A99777",
"w. c #AF936C",
"e. c #99A777",
"r. c #8FAE6C",
"t. c #A6AB77",
"y. c #A9B776",
"u. c #B3B26D",
"i. c #C89453",
"p. c #D3A45D",
"a. c #D09A65",
"s. c #CFAF70",
"d. c #E0AB5D",
"f. c #B2C555",
"g. c #90C46E",
"h. c #B1CC6E",
"j. c #9ED959",
"k. c #D0CF71",
"l. c #C7ED79",
"z. c #C6D35F",
"x. c #7D7B83",
"c. c #798783",
"v. c #7D9584",
"b. c #8A8C86",
"n. c #998C88",
"m. c #8C9C85",
"M. c #8C9B8A",
"N. c #879686",
"B. c #939C8D",
"V. c #979789",
"C. c #999995",
"Z. c #8F9094",
"A. c #A99987",
"S. c #A49B99",
"D. c #BA9C82",
"F. c #8AA48A",
"G. c #95A48A",
"H. c #9BA49A",
"J. c #9BA796",
"K. c #8DAC8E",
"L. c #A9A987",
"P. c #A5A699",
"I. c #A9B699",
"U. c #B7B598",
"Y. c #B7AE90",
"T. c #939EA2",
"R. c #9CA8A4",
"E. c #A7A9A3",
"W. c #B3ABA5",
"Q. c #AAB7A8",
"!. c #B7B8A9",
"~. c #BBBCB3",
"^. c #BAB9B8",
"/. c #A9ACB3",
"(. c #A89FA2",
"). c #C3B690",
"_. c #C1BDAB",
"`. c #C5BEBA",
"'. c #A8C78C",
"]. c #A7C996",
"[. c #B9C996",
"{. c #B2D18E",
"}. c #B8C4AA",
"|. c #BAC4B7",
" X c #B2CCAD",
".X c #AED887",
"XX c #C9D485",
"oX c #CFD394",
"OX c #D3ED92",
"+X c #E9F299",
"@X c #C4CABC",
"#X c #C7C6B9",
"$X c #CDCDB7",
"%X c #E9EDAD",
"&X c #CCE7AF",
"*X c #BBBDC4",
"=X c #AAB6C4",
"-X c #C6BCC2",
";X c #BCC6C3",
":X c #CBCCC4",
">X c #C7C9C6",
",X c #D5CDCA",
"<X c #CDD2C5",
"1X c #CDD3CB",
"2X c #C8D8C8",
"3X c #D4D4CC",
"4X c #DCDBCD",
"5X c #D6D7C9",
"6X c #CCCCD5",
"7X c #D5D6D3",
"8X c #DDDED3",
"9X c #DCDDDA",
"0X c #D7D9D6",
"qX c #D1CFD6",
"wX c #E1DED3",
"eX c #E2DDDB",
"rX c #E9DDD9",
"tX c #E4D4CC",
"yX c #DCE2CD",
"uX c #DAE7CC",
"iX c #DCE2D5",
"pX c #DDE3DB",
"aX c #DDE9DC",
"sX c #D9E6D5",
"dX c #E2E3CD",
"fX c #E8E6CB",
"gX c #E2E1D5",
"hX c #EAE4D3",
"jX c #E4EAD5",
"kX c #E4E4DB",
"lX c #EAE5DC",
"zX c #E5E9DC",
"xX c #EAEADD",
"cX c #EAEAD4",
"vX c #E7F2DC",
"bX c #F0E8DA",
"nX c #D7D9E4",
"mX c #E7DEE3",
"MX c #FADEED",
"NX c #DDE3E3",
"BX c #DCE8E4",
"VX c #E4E4E2",
"CX c #EBE4E3",
"ZX c #E5EAE2",
"AX c #EAEBE3",
"SX c #ECECEA",
"DX c #E7E7E9",
"FX c #F3ECEB",
"GX c #F3E7E6",
"HX c #EBF2E4",
"JX c #EDF2EA",
"KX c #E4F1E6",
"LX c #F2F3EC",
"PX c #F3F4E7",
"IX c #F5E9F5",
"UX c #EDF0F3",
/* pixels */
"wXwXwXwXgXgXgXgXgXwXwXwXgXgXgXwXgXwXwXgX8X4X8XwXgXwX8XgXwXgXgXgXgXgXwXwXgXgX4XgXwX4X8XwXwXwXwXgXgXgXgXgXwXwXwX8XwXwXwXwXwXwXwXwX",
"wXwXwXwXgXgXgXgXgXwXwXwXgXgXgXgXwXwXwXgXkXkXgXgXgX8XkXjXgXgX8XiXkX8X8XgXwXgXwXwXgXwXwXwXwXwXwXgXgXgXgXgXgXwXwXwXwXwXwXwXwXwXwXwX",
"wXwXwXwXgXgXgXgXgXwXwXwXgXgXgXgX8XgXgX8X8X8X8XgXgXkX8XpXVXDX9XxXiXgXkXxX8XzXkX4XgXgXwXgXgXgXgXgXwXgXgXgXgXgXgXgXwXwXwXwXwXwXwXwX",
"wXwXwXgXgXgXgXgXgXwXwXwXgXgXgXgXgXgXgXgXgXgXgXlXgXgXlXkXlX8XgXgXlXgX9XVXeXeX8XkXwXwXgXgXkXkXgXwXgXgXgXgXwXwXwXwXwXwXwXwXwXwXwXwX",
"wXwXwXgXgXgXgXgXiXiXiXgXgXgXgXgXgXgXgXkXlXkXgXgXkXwX8XAXdXfXAXkXkXlX8X4XgXlXkXCXgXgXgXgXgXgXgXgXgXgXgXwXwXwXwXwXgXgXgXgXgXgXgXgX",
"wXwXwXgXgXgXgXgXgXiXgXgXgXgXgXgXgXgXkXlXgXgXkXlXlXAXDXDXVXlXwXkXkXlXlXVXDXlXgXdXkXkXgXgXgXgXgXgXgXgXgXgXwXwXwXwXgXgXgXgXgXgXgXgX",
"wXwXwXgXwXwXgXgXgXgXgXgXgXgXgXgXgXgXlXlXgXlXAXiX5X!.!.P.7XDX0XAXkXkX0XQ.E.|.ZXZXgXkXkXgXgXgXgXgXgXgXgXgXgXgXgXgXgXgXwXwXgXgXgXgX",
"8XwXwXwXgXgXwXgXgXgXgXgXgXgXgXgXxXgXgXkXgXxX4X!.Z.6.5.h.>.@XE.>XZXP.t.3.| 0 A H.8XgXkXkXkXkXgXgXgXgXgXgXgXgXgXgXgXgXwXgXgXgXgXgX",
"8X8X8XgXgXgXgXgXDX8XwXlXyXHXgXfXlXpXfXaXrXAXhXVXZXU.>.u.3.A c.E.@X2.2.v 7.#X$XqX1XgXVXhXkXdXkXgXlXlXkXgX8XgXkXpXgXgXgXgXwXwXgXwX",
"8X8XgXgXgXgXgXgXiXAXwX8X1X~.!.-XmX2XkXkXDX:XW.Q./.G.+.9.+.q $ H 9.+.X L 6XCXuX7X>X7XAXyXkXNXjXkX|.~.7XVXkXdXhXwXgXgXgXgXgXgXgXgX",
"8X8XgXgXgXgXgXgXjXlX,XE.7.6.f.f.!.Q.|.pXe.h.u.6.,.r.e.I.W.&.r o v $ x.>X5XH.A u.k.u.#X>X}.UX~.U.h.,.S b.-XDX8XCXgXgXgXgXgXgXgXgX",
"8X8XgXgXgXgXgXgXgXdX8X0XkX}.0.t.3.F P.#X5.4.$.e.{.t.y.3.y.B.; : : i %.D 8 # 7 x q.oXu.n.P.qXt.z.*.8.:X}.!.1XDXgXgXgXgXgXgXgXgXgX",
"8XgXgXgXgXgXgXkXCXgXzXiX3XeX>X7.| q V e.}   b.P.Q.$.+.X.v g i o X g 7 h # : u B   $.,.z L L.4.- J <XzXSXJXkXlXkXgXgXgXgXgXgXgXgX",
"8XgXgXgXgXgXgXkXVXVX|.[.'.y.XX#XE.o.9 g i V.U.>X2X[.|.%.g 8 % x Z # 8 Z N.l l A 9 &.U.S 0 n l J ~.#X#X1X7XxXpXDXkXgXgXgXgXgXkXgX",
"8XgXgXgXgXgXkXkXgXG.>.y.e.+.4.;.y.L $ & x b q 7 . >.oXOX4.# & 5.h.} $ i G v 4.*.b * U.G = , 0 S S z z 5.Y.~.zXpXlXlXkXgXgXgXgXgX",
"8XgXgXgXgXgXkXkXP.N.E.>X4X#XN.& l q p # r q A V e.+Xl.#.  x .X&X#.{ r t ; 7 J $XP.< z l ,   l z n x C 0.,.O W.FXlXlXkXgXgXgXgXgX",
"yXwXgXkX9XpXVX5X>XVXiXPX0X~.{.5.g   ,.h.| 9 V 6.oX.X9   u.3.+XOX+.8 f u : t $ Z.oXh.n   b y.| - M #XiX>X>XE.^ |.xXwXgXiXiXwXlXeX",
"eXaXmXgXuXkXhX9XlXAXFX@Xu.OXl.*.# e.k.h.3.{ p A {.b . %Xh.b l.{.Z u e f e * i   XXh.- S XXk.z.;.k V J.lXGXSXDX2XCXwXdXrXCXiXsXaX",
"4X|.Q.3XrX8XpXBX1X~.|.6.oXu.  G r.OX+X@.g b r A y.. [.OX{ M .Xy.8 w y w f 8 J H   j S oX%X5.z n z j = %.$XQ.6XGXsXzXkX4X`.0XZXfX",
"M.+.| 2.!.~.9XP.#.}   +.t.  w.OXA k.+X} g s f 3.2.S OXN p > y.2.# : e e : r A B.x OXt.k.+X;.x x n x x = 0 2.f.*X!.mXQ.e.+.S b.6X",
"xXtXP.#.g K !.O.9 J.,XI.} $.+X3.  XXh.f p t 9 $.r #.2.; & % +.+.r & e 8 o f r a %XOXO U.k.n x 0 n n j 7.C.!.2.{ F Q.r.0 %.,X$X|.",
"^._.#XG.N $ b e P.sXNXe.h XX4.g . r.5.p * s p , t 6.O.. x d i g f & # d K r p V 0.*.  4.z.k j x x k k S H.#XE.$.= g p %.0XvXvXPX",
"+.b | r.%.# % s N.K Z $ S f.b $ o S } v % p 9 , | $.X.K K.o.; M u & o Z `.u 8 Y.n j X n ,.n - 0 j - n j = z y.V.a $ i %.G s D J.",
"7X#X$.9 f % o w 7 s V F ,.#.g A A = v b : # N D @.q v.-Xh.g s d a , L D 4Xd . G.n & S 0 n n 0 o x V z k >XG.7 q * % 8 7 M K F s ",
"qX}.h.X.  g #.g   H.,XI.2.b E.}.@.i Z q O = G M.q $ W.$XX.d V . J B.P.C.DXx x W ! Y.4.p c n & - C E.j j 9.oX@.X p O.v o c.0XBX5X",
"r.j.} = O.h.O.g r 7 K 9...b 6Xy...= x b F %.N.H.    #XnX. Q.B.X E.:X~.NX1Xe.5.k =XoX;.# n x V G H `.# j *.3.p +.h.2.g y $ p W.FX",
"L.p A g.>.XX` ; t w # $ i G ZX$.F c.  m.*XH.@XI.T.B.PX9XL nX#X3 E.0X3XHXJX!.V H 0Xt.z D X H ~.C./.|.b.C n > h.@.OXO.w a i * X |.",
"O.x XXO.n '.f = a t ; N.S.-XHXF Z.7X+ E.$X#XxX>X9X1XvXuX4XUX#XY C.FXlXaXDXqX*X^.DXb.S nX2 7.3X;XjX6XE.S 8 k.g.s j.X.w y t y v.C.",
"g 4.#.% A 2.w * w r 7 %.7XyXAX!.0X$Xc S.kXDXVXZXGXaXvXkXrXKX}.U P.AXkXVXVXZXgX$XUX;X*X9XE ! kX0XkXxX|.O.>.3.7 d 2.g % w p $ %.3X",
"a #.7 . p A t ; y % a o !.SXjXaXDX5XW S.ZXkXzXkXpXvXwXCXFXaX#XI E.LXgXzXzXlXZXDXsXkXCX0X( ^ gXjXCXlX^.r >.g X : A p # y # e   `.",
"g } G A r ; g ;   Z.A a R.DXeXgXHX$XI (.HXlXuXcXlXzXlXlXgXxX`.U E.DXzXzXhXjXgXiXkXcXlX9XW ^ AXxXVXiX>X&.b X.J g ; g * . b.F M J.",
"{ M ~.y.g p 7 d e |.G V pXkXzXhXVX,XT C.ZXjXZXCXkXlXkXBXxXHX^.Y P.JXZXlXlXlXlXVXrXBXBXpXQ ^ ZXkXhXvXyX9.q R.'.v i r , : }.%.M kX",
"9 A ,Xo.s # K P.C.>XP.b.kXxXkXkXDX<XR S.AXaXgXlXZXkXkXzXgXAX#XY P.LXkXlXlXkXkXlXkXkXzX9X<.~ xXlXxXzX1XF & |.%.d # A R.Z.>XH.^ aX",
"Q.Q.lX: !.C C.>X3XpX7X3XkXpXAXgXAX<XR S.AXaXkXlXkXkXkXzXkXZX_.U S.LXgXlXlXkXkXlXkXkXzX9X<.~ xXkXlXAXiXQ.H.KXZ Q.$.H 1X3XeX7X3XkX",
"mX5XCX/.DX8.n.NXgXkXkXAXkXgXkXlXAX1XR S.AXaXgXlXzXkXkXaXkXAX_.Y C.SXgXlXlXkXkXlXkXkXzX9X<.~ xXkXlXlXkXDX7XAXQ.pXA.! 8XVXeXkXAXiX",
"mXlXdXkXVX( 8.LXiXxXpXgXgXZX8XkXAX<X=.C.DXzXkXlXkXkXgXaXkXAX_.Y C.SXkXlXlXkXkXlXkXkXzX0X<.~ xXlXlXlXkXeXkXVXVXZXA./ lXlXAXkXkXxX",
"wXdXyXzXgX( V.aXlXkXxXlX8XkXlXgXAX<X=.C.AXzXkXlXkXkXkXzXVXAX!.U C.SXlXxXlXkXkXlXlXkXzX7X<.~ xXlXkXkXxXxXgXlXgXVXA./ zXgXkXiXwXkX",
"sX8XlX8XZX~ n.SXkX8XkXlXgXgXlXgXAX<X=.n.AXzXkXlXkXkXkXkXlXZX!.Y C.SXlXxXlXkXkXlXlXkXzX7X<.~ lXlXiXxXgXkXkXkXkXgXA.7.zXkXgXiXlXgX",
"sXlXrXkXsX8.n.FXkXlXgXgXlXkX8XgXxX:X=.n.DXzXkXlXkXlXkXiXkXZX_.T C.SXlXxXkXkXkXlXkXkXzX7X<.~ lXVXAX8XkXgXkXlXlXZXq.8.zXgXgXiXwXgX",
"rXgXdXBXCXW A.lXiXxXgXlXiXkXkXgXAX@X=.n.DXzXkXlXkXlXkXkXlXZX!.Y V.SXlXxXkXkXkXlXlXVXzX5X<.~ kXVXkXVXlXkXlXlXgXZXA.8.xXlXlXkXgXiX",
"wXiXgXkXaX( n.ZXgXlXkXkXgXgXkXgXxX:X-.Z.DXlXlXaXkXcXlXVXjXBX!.T C.AXkXkXAXgXkXkXxXgXAX1X1.! xXkXkXkXkXkXkXlXkXkXq.8.ZXkXgXkXwXiX",
"wXiXkXkXkX~ n.ZXgXlXgXkXgXkXkXkXxX:X1.n.SXhXgXkXkXzXlXVXgXSX_.Y Z.LXlXkXgXDXZXkXxXlXAX1X1.! iXlXxXkXgXgXkXlXVXVXq.8.VXkXgXlXlXgX",
"wXgXkXkXiX( 8.ZXgXkXiXkXiXkXkXkXAX>X<.7.zXkXlXZXkXzXVXZXkXVX).Y Z.LXlXAXkXVXpXaXgXkXZX1X1.! kXAXkXkXlXkXlXlXkXkXq./ VXgXkXgXrX8X",
"wXgXkXkX8X( 8.xXkXxXgXxXgXVXlXlXxX#XR 7.AXlXVXpXAXkXVXDXxXCXY.Y Z.SXAXAXAXVXkXzXkXkXZX:X1.! kXZXVXVXlXkXlXlXZXZXq.~ AXlXlXkXlXgX",
"wXgXkXlX8X( 8.ZXgXkXwXkXkXkXlXkXAX#XT / AXlXVXVXlXVXVXVXAXAXY.Y b.SXAXlXCXDXAXxXlXzXHX:X1.! xXZXkXkXlXkXkXlXkXkXw.~ ZXlXgXkXlXgX",
"8X8XkXlX8X( 8.AXlXlXkXxXAXlXAXAXAX#XT ^ SXAXDXAXhXJXJXZXxXxXU.T b.LXxXPXlXDXgXlXkXkXHX>X1.C xXaXZXAXxXxXxXAXZXzXw.~ AXAXxXAXAXzX",
"8XiXkXlX8X( / xXAXlXkX8X8X<X5X5X2X!.-.! KXaX1X@X!.>X@X|.$X<XL.R F @X|.2X|.|.~.<XwXiXZX#Xi.C #X|.:X@X|.~.#X3X8X8Xw.! 4XiX<XiX8X5X",
"iXiXlXAX8X( / xX1X>X@XQ.E.M.G.M.Q.E.1.C ;X|.H.B.G.F.N.G.~.#XL.1.d J.N.N.N.J.Q.@X>X:X3X~.i.c P.M.M.m.B.H.!.@X:X>Xw.) !.E.m.H.C.B.",
"|.sXkXlX1XR / sX|.I.G.m.9.F.m.m.F.e.a.c G.M.9.m.G.M.m.9.F.F.q.Q 5 F.F.v.v.M.N.K.J.}.>XL.p.c F.C.F.N.N.F.m.I.}.;X<.) J.M.F.F.v.m.",
"^.5XkX8X;XR C J.N.N.m.9.9.m.G.J.%.0.i.5 V.G.m.9.9.H.m.!.J.%.w.Q 5 F.%.B.M.J.Q.M.G.m.m.6.p.4 N.M.N.M.H.J.Q.9.B.M.<.c B.G.N.M.B.U.",
"eXgXwXZX>X=.L 5X#X8X#X#X#XP.iX#X>XL.1.5 ,X@X@X<Xb.AX<X5XxX|.u.R C H.V.kX<XZXsXC.>XHX|.L.i.1 Q.}.H.iX<X3X!.<XpX^.w.c <X8X|.P.kX!.",
"eXkXkXKX:XR C lXAXAXkXAX!.~.#XkXCXY.a.2 4XxXLX@X|.xXP.5XLX6Xu.1.5 J 3XLXLXAXB.#XUXSXCXU.s.2 1X#X5XLXAXS.!.LXAX5X<.c 8XLXkX~.<X7.",
"gXAXiXVX#X=.6 4XAXgXxX:X7.|.AXPX9X).s.2 >XPXLXQ.:XP.4XAXUX^.k.Q @ G ZXJXzXC.!.FXBXIXmXY.s.1 n.!.SXZXC.E.DXkXAX<XQ 4 5XDXgX~.b.#X",
"gXiXuXDX$Xi.2 :XlXJXkX7.~.AXgXAX1Xs.a.3 Q.PX5XH.H.0XHXxXDXW.s.Q @ W.HXKXE.C.AXDXxXSX7Xs.i.4 C 4XLXE.B.AXDXVXAX#Xa.2 :XAX5XV.H.aX",
"kXlXjXDX).i.1 ^.LXAXV.P.AXZXAXJX~.p.<.2 Z.LX~.b.iXSXAXAXDXY.d.R + 7.PX!.%.kXAXAXlXHX|.s.i.3 L HX~.7.gXAXkXkXPX!.i.1 ~.LXW.7.AXZX",
"kXkXhXpXD.:.+ P.LXP.b.AXkXZXHXJXW.d.E + Z.8X7.#XPXIXzXAX9Xq.p.P   N.5XH >XPXZXAXSXUX~.p.Q 1 c.3XJ <XHXlXFXCXwXY.i.1 C.pXH #XlXCX",
"lXcXNX3X1.R + %.^.7.5XSXlXSX7X>Xq.i.I 6 V $.P.AXGXJXBX|.U.w._ P 6 x H E.UXSXFXJXpX>XP.1.I 4 a K P.SXAXjXvXVXtXw.R 1 c.S.G.ZXVXAX",
"sXeXZ.&.,.E 2 < & /.SXDXPX<XC.+.#.W c + X   b.gXHX9X/.%.X.| W 6 @ X . K sXJXFX1XC.+.O.S E @ O . J 9XIXFX9XR.7.,.E 6 X , Q.FXGXjX",
"5X&.' ] ] ' ` 7     ^.CX5XO.]  . . ...' q $   x.0Xr.' [  . . .{ { 9 o X m |.uX+.]  .[  .' { q $ X L 7XnX&.] [ ] ' q 7   X ^.AXaX",
"wX7X2X].].'.'. X].|.@XzX4XyX3X$X'.].].'.].]. X$X4X$X X{.g.g.r.g.r.r.r.%.E.9X8XsX2X}.[.'. X].[.].}.>XVX9X<X&X X].'.'.].Q.|.<XlXzX",
"ZXxXgXJXAXDXIXCXDXcXAXVXxXAXDXDXcXVXSXGXGXSXUXUXSXGXGXlXkXaXaXkXzXkXzXKXJXDXDXDXFXcXAXzXKXlXIXKXPXcXxXGXCXCXmXGXNXAXvXAXCXFXkXNX",
"gXaXZXrXwXaXaXzXCXrXDXDXVXgXjXhXcXaXNXVXkXDXZXhXkXkXzXVXCXFXAXAXDXCXlXxXhXhXzXgXBXVXbXhXKXkXhXkXCXCXlXiXyXjXzXZXMXrXyXGXCXcXcXlX",
"yXkXkXkXxXkXgXkXxXjXgXgXdXzXNXxXlXVXjXxXdXZXgXxXZXZXiXxXkXkXgXcXaXlXZXaX8XZXkXGXlXCXlXrXyXzXhXpXNXpXjXzXlXmXkXdXkXCXxXsXsXkXmXVX",
"DXhXlXsXsXVXmXxXsXVXkXlXVXAXjXNXVXVXcXVXzXBXxXlXgXxXlXlXzXzXZXDXZXlXAXlXbXAXaXzXlXjXaXNXDXCXlXlXjXgXVXkXlXCXkXaXcXaXVXVXGXzXzXkX"
};
