/* XPM */
static char *e1ffa5df60504e67b6e6f3c1fd050107xavviilL0OJnF7lS[] = {
/* columns rows colors chars-per-pixel */
"64 64 255 2 ",
"   c #030301",
".  c #080203",
"X  c #190000",
"o  c #051A06",
"O  c #0F1315",
"+  c #280503",
"@  c #360902",
"#  c #30160A",
"$  c #032B03",
"%  c #063606",
"&  c #042B18",
"*  c #053815",
"=  c #123216",
"-  c #3B2B17",
";  c #0F152B",
":  c #1B3929",
">  c #0B3529",
",  c #2E372C",
"<  c #211F2A",
"1  c #4D2F09",
"2  c #50392F",
"3  c #034806",
"4  c #035606",
"5  c #06481A",
"6  c #035817",
"7  c #154B15",
"8  c #275413",
"9  c #016806",
"0  c #026619",
"q  c #0B6E11",
"w  c #2C681D",
"e  c #064B26",
"r  c #085624",
"t  c #175828",
"y  c #154E31",
"u  c #244426",
"i  c #2A5033",
"p  c #046529",
"a  c #007529",
"s  c #177A29",
"d  c #0C6838",
"f  c #147734",
"g  c #156A2E",
"h  c #286639",
"j  c #247737",
"k  c #357A37",
"l  c #2F6D2C",
"z  c #47721C",
"x  c #504E31",
"c  c #6E572C",
"v  c #547D39",
"b  c #496B32",
"n  c #6D7B33",
"m  c #615717",
"M  c #48394D",
"N  c #355545",
"B  c #167542",
"V  c #307244",
"C  c #465348",
"Z  c #545649",
"A  c #565A57",
"S  c #4D494B",
"D  c #675947",
"F  c #715A52",
"G  c #477B46",
"H  c #5B6558",
"J  c #417655",
"K  c #506E4C",
"L  c #69654B",
"P  c #69794B",
"I  c #6A6A58",
"U  c #756854",
"Y  c #7B765A",
"T  c #726F4C",
"R  c #4C5864",
"E  c #6B6B66",
"W  c #756C62",
"Q  c #6A7966",
"!  c #7B7364",
"~  c #7A786A",
"^  c #6F7870",
"/  c #787872",
"(  c #626672",
")  c #89775C",
"_  c #876F53",
"`  c #AF7D4D",
"'  c #837C6B",
"]  c #877866",
"[  c #877C76",
"{  c #8C7869",
"}  c #188B36",
"|  c #308B30",
" . c #38961E",
".. c #488637",
"X. c #558836",
"o. c #4F9030",
"O. c #6B8F36",
"+. c #6FA63E",
"@. c #1C8E43",
"#. c #2A8949",
"$. c #598656",
"%. c #4D8D4C",
"&. c #709B4B",
"*. c #789858",
"=. c #718851",
"-. c #74A84E",
";. c #658364",
":. c #7B8677",
">. c #769071",
",. c #7BA46E",
"<. c #8EAA37",
"1. c #899256",
"2. c #8DAB54",
"3. c #86836B",
"4. c #8B836C",
"5. c #888667",
"6. c #97876A",
"7. c #85986A",
"8. c #8B8372",
"9. c #888879",
"0. c #928B74",
"q. c #938B7B",
"w. c #978A78",
"e. c #899677",
"r. c #94927E",
"t. c #979779",
"y. c #9B976A",
"u. c #A59678",
"i. c #B39876",
"p. c #A6916E",
"a. c #97B567",
"s. c #94AB7A",
"d. c #8DAA6E",
"f. c #A7B777",
"g. c #ABAE73",
"h. c #AB8556",
"j. c #C3A37A",
"k. c #C79155",
"l. c #AFC872",
"z. c #C6CB77",
"x. c #7F8485",
"c. c #898884",
"v. c #938A84",
"b. c #8B9884",
"n. c #959284",
"m. c #9A9484",
"M. c #94948B",
"N. c #939C8C",
"B. c #9D9B8B",
"V. c #9A9887",
"C. c #8A8C92",
"Z. c #9A9793",
"A. c #A39C8C",
"S. c #A59887",
"D. c #A49D93",
"F. c #A99A94",
"G. c #B59B88",
"H. c #8AA588",
"J. c #98A587",
"K. c #98B189",
"L. c #99A595",
"P. c #9DB699",
"I. c #A4A58B",
"U. c #A4A293",
"Y. c #A3A39C",
"T. c #ABA69B",
"R. c #ACA99B",
"E. c #A8A796",
"W. c #B2AA9C",
"Q. c #A9B698",
"!. c #B3B59B",
"~. c #B5AF86",
"^. c #A99BA3",
"/. c #ADACA2",
"(. c #A7A8A2",
"). c #B2ACA2",
"_. c #B9ACA6",
"`. c #A9B4A5",
"'. c #B4B4A4",
"]. c #B9B3A4",
"[. c #BAB5AB",
"{. c #B6BAAA",
"}. c #BCBBAB",
"|. c #B5B5A8",
" X c #BBBCB4",
".X c #BBB9B7",
"XX c #9DABAB",
"oX c #C6AC89",
"OX c #C3BBA9",
"+X c #C3BDB3",
"@X c #C7BBB8",
"#X c #B6D184",
"$X c #BAC3A9",
"%X c #BBC2B3",
"&X c #BBC4BA",
"*X c #AEC8AC",
"=X c #C3C1AE",
"-X c #CCC3AD",
";X c #C4C2B3",
":X c #CBC5B3",
">X c #C5C4BA",
",X c #CBC5BB",
"<X c #CBCABC",
"1X c #C8CAB7",
"2X c #D3CDBD",
"3X c #D7C9BA",
"4X c #CDD4BD",
"5X c #CAD7BC",
"6X c #D5D2BD",
"7X c #D9D3BE",
"8X c #DBD9BC",
"9X c #E2D5B4",
"0X c #C8D585",
"qX c #C8BEC7",
"wX c #B8C4C0",
"eX c #CCCDC3",
"rX c #CBC7C4",
"tX c #D4CEC3",
"yX c #D7CDC5",
"uX c #CCD4C3",
"iX c #CCD8C6",
"pX c #D6D3C3",
"aX c #DAD4C3",
"sX c #D6D9C4",
"dX c #DBD9C6",
"fX c #D4D3CA",
"gX c #DCD5CA",
"hX c #D5DACA",
"jX c #DCDACB",
"kX c #DDD5D2",
"lX c #DCDBD2",
"zX c #D7D9D6",
"xX c #CDCED0",
"cX c #E1CEC6",
"vX c #E2D4C5",
"bX c #E2DBC6",
"nX c #E3D5CB",
"mX c #E2DCCC",
"MX c #EADBC9",
"NX c #E3D7D2",
"BX c #E3DCD2",
"VX c #E7DBD7",
"CX c #F1DAD4",
"ZX c #DCE1CD",
"AX c #D8E2CA",
"SX c #DCE2D4",
"DX c #E3E1CD",
"FX c #E7E2CB",
"GX c #E4E2D3",
"HX c #EAE3D4",
"JX c #E4E3DA",
"KX c #EAE3DB",
"LX c #E9EADB",
"PX c #EEE9DB",
"IX c #E8E4E2",
/* pixels */
"gXgXaXaXaXaX7X7XaXaXaXaXaXaXaXaXaXaXaXaXaXaXaXpXaXaXaXjXtXgXvXvXnXaXaXjXaX7XaXaXgXgXaXaXaXaX7X7XaXaXaXaXaXaXaXaX7XaXaXaXaXaXaXaX",
"gXgXaXaXaXaXaX7XaXaXaXaXaXaXaXaXaXaXaXaXaXaXaXgXgXjXaXdXsXsXpXbXnXdX6X7XpXmXyXdXgXgXaXaXaXaXaXaXaXaXaXaXaXaXaXaXaXaXaXaXaXaXaXaX",
"gXgXaXaXaXaXaXaXaXaXaXaXaXaXaXaXaXaXaXaXaXgXgXgX2XmX7X3XbXaXjXdX8XsXNXNXsX8XyXgXaXaXaXaXaXaXaXaXaXaXaXaXaXaXaXaXaXaXaXaXaXaXaXaX",
"gXgXaXaXaXaXaX7XaXaXaXaXaXaXaXaXaXaXaXaXaXgXdXdXsXaXgXNXyXgXjXdXbXeXcXcXfXpXmXpXgXgXgXaXaXaXaXaXaXaXaXaXaXaXaXaXaXaXaXaXaXaXaXaX",
"gXaXaXaXaXaXaXaXaXaXaXaXaXaXaXaXgXaXaXgXgXdXdXdXzXfXjXjXjXjXfXNXgXJXmXmXGXfXnX7XgXgXaXaXaXaXaXaXaXaXaXaXaXaXaXaXaXaXaXaXaXaXaXaX",
"aXaXaXaXaXaXaXaXaXaXaXaXaXaXaXaXaXaXaXaXgXgXdXgXbXdX).).'.tXbX7XBX7Xe.:.T.:X2XgXgXgXgXgXaXaXaXaXaXaXaXaXaXaXaXaXaXaXaXaXaXaXaXaX",
"aXaXaXaXaXaXaXaXaXaXaXaXaXaXaXaXaXaXaXgXgXdXgXgX_.D u.f.2.P }.VX@X1.l.d.  . B.gXgXgXgXaXaXaXaXaXaXaXaXaXaXaXaXaXaXaXaXaXaXaXaXaX",
"aXaXaXaXaXaXaXaXaXaXaXaXaXaXaXaXaXaXgXdXgXdXgXaXM.>.*.z -.-.% *X0.g.-.7 c.2XAXkXgXgXgXgXaXaXaXaXaXaXaXaXaXaXaXaXaXaXaXaXaXaXaXaX",
"aXaXaXaXpXaXaX2X7XaXaXgXgXyXgXgXpXmXgXkXdXdXmXkXdXgX=X^.i a s ; Y %.$ b.rX'.W.,XjXdX4XdX6XvXgXsXdXdXaXfXgX7XbXaXjXdX6XaXaX7XaXaX",
"aX7X7XpXaXaXaXaXaXaXaXgX2XbX8X7X8XaXbX6XdXlXn.5.u.e.u.N.~ O g t & 0 < K 4 4 3 $ W +XnXmXdXdXgXaX6XaXdXaXdXaX6XaX2XgXaXdXaX2XaXdX",
"aXdXaX6X6X6X7XaXgXgXgXaXbXgXpXdXdXgXjXdXsXr.7.f.2.2.a.a.a.=.& u : t p a g i Q M.^ M.mXaXyXmXgXdXjXjXaXmXaXgXaXmXbXgXaX7X7XaXdX7X",
"7XaXaXaXaXdXaXaXdX2XpXmXaXtXBXfXfXmXpXlXV.o 7.:.^ ; o ..X...h . 7 p d B 5 u c.+XJXjXjXgXmXnXaXhXkX7X7XdXnXtXdXaXtXaXaXdXaXaXdXaX",
"aXaX7XaXaXgXaXaXpXbXaXgXtX8X7XgXpX7XbX2X).+XfXfXZ.g.#Xf.O.0 > b | e ; d #.s 9 6 F.bXaXjXtXgXgXgXgXaXbXdXaXdXaX8XgXdXaXdXaX7XdXaX",
"dXaXaXaXpX6XgXjXpXfXkXyXmXdX<XdXZX6XaXFXNXKX=XP z.#X+.q & =.i o.o.} > + o 5 #.a 5 K.jXdXbXsXjXdXpXfXNXyXmXNX,XGXgXdXaXaXdXaXaXaX",
"aXaXdXdXaXjXtX].~.J.{.hX4XI.7.Q Y.tXgXaXgXtX=.l.&.9 4 ; g.-.; z | } @.o ( S   S d e uXnXaXjX4X!.~.t.;XlX<XI.9.E ].2XdXaXdXaXaXaX",
"aXaXdXpXgXjXE.Z O.<.n I.I.2.O.Q +XbXFXgXGXV.e.x   I < #Xa.0 : & } } j 0 / xXY C.:.  Z.KXjXdXV.L 1.2.n {.J.2.n :.;XmXbX2X7XaXdXdX",
"gXgXgXaXdXfXqX;XF.A 0 6 L l R !.U.N.=XNXzXE Z O /.(.g.#X9 i O 2 r f y @.$ ).MXeX!.v.Z.lXVXyX-X}.S.C 9 5 ;.0 ' `.B.L.,XgXgXaXsX7X",
"dX8XpXjX X1.<.2.g.d.x y & 5 B 3 % H ! :XtX[ zX&XKX~ 0X%.$ , Y.c x u y g 0 v.DXgXzXmX2XHX!.7.2.a.g.7.: y & t g 4 5 K ~ 3XgXhXaXgX",
"dXtXBX,XZ y.V.Z v &.v = i p } g b U.ZXsXsXlXlXmXgX~ f.p H U.fX1 [ c.. K r :.iXvXlXgXVX].x J.:.Z X.&.k ; t d } t I }.mX3XdX6X8X9X",
"pXdXyXOX7XxXU.f.2.k 6 w | u : p B p ;.3XnXhXaXnXdXr.P   ,XHX%Xm 9.eX.XV.$ (.GXgXaXpXfX-X7XrXJ.a.a.j r b l = y 0 a r e.dXaXvXsXhX",
"dXdXaXZXuX7.2.o.3 n =.e  .} e M = e 5 b.KXjXdXjXDXU.  @X8XmX>XT 9.GXlXM.H BXaXgXmXjXDXGX>Xe.a.X.3 1.v 8  .#.> M * i * E.nX2XnXpX",
"7XaXaXkXe.b i K 5.a.e . w } p / ].n.:.C sXnXVXvXCXtXC.DX8XIX<XF / bXFX[.&XHXdXNXlXlXgXNX9.b b R 2.,.* O | j 4 c.`.9.:.A hXmX7XaX",
"gX8XfXyX0.Z.rXT.l.6 , H = e d 4 =XNXiX*XpXnXHXAXnXVXeX4XnXlX:X{ c.DX5XCXkXnXjXhXsXBXBX,Xv.B.OXI.a.% A F % 5 a r 3XsX<X{.pXnXuXgX",
"dXtXsXsXeXDXdX0.O.N [.y.E ! N 9 Y.jXaXNXgXdXvXlXAXlXbXbXNXjX:XU [ SXmXMXhXZXnXjXbX8XhXSXpXJXuX7.X.A {.W ' R N 4 /.nXgXMXaXsX6X8X",
"dXaXdXpXpXpXjXq.i }.HXw.[ gX(.: rXgXzXvXpXMXgXfX4XgXNXmXbXlX1Xw.8.KXjXdXjXkXKX6XfXbXjXtXiX7XgX:.H pXlXL D.4XL.: pXpXpXaXaXaXpXpX",
"dXaXdXpXgXsXjXR.L.mXVXn.8.VXeXL.NX9X@Xe.d.&X>X*.Q >XKXjXjXGX:XL 9.dXBXVXnXNXV.d.s.,X!.o.c.mXHXv.|.jXgXY D.DX XL.jXdXdXgXgXaXpXpX",
"aXaXaXpXdXsXjX<XaXnXdXr.3.mXgXjXdXhX!.J.=.l $.K n._.>XiXaXCX:Xt.c.VXjXDXkXeX!.N.l k v Q R.XX-XsXjXdXBXU D.bXtXfXgXdXgXgXgXgXgXaX",
"aXaXaXgXgXpXsXjXaXaXbXr.0.bXaXnX;X7.t.2.=.u * h p K L.sXHXNX<Xq.v.mXdXzXE.d.1.1.P * r B 3 Q W.fXgXdXgX3.U.bXyXgXsXpXpXpXpXgXgXaX",
"dXpXgXgXpXgXgXgXsXgXmXr.q.mXjXjX[.}.K.*...h | t p J L.gXNXLX;XS.9.GXmX2X+X{.H.&.k h h r p ;.*XVXgXmXgX3.D.mXgXaXgXgXgXpXpXpXgXaX",
"dX6XgXgXpXgXdXpXsXhXpXS.w.jXsXjXCXJ.O.$.$.i | s A E   Y.nXVX=X6.9.jXdXHX<X1.&.K =.8 o.i I h % %XjXsXjX! D.bXgXaXgXgXgXgXpXsXpXpX",
"aXpXpXpXpXaXdXpXdXhXjXS.q.GXsXmX`.U M.d.X., 8 4 J &X@X).GXGX1X4.' mXSXZXM.c.b.2.6 , t 4 M.<XF.@XGXdXaX0.U.FXtXjXsXpXaXpXpXpXgXaX",
"pXdXpX6XgXpXgXgXvXpXjXq.9.GXgXnXuXNX:XO.C.M.[ :.3 $XCXdXjXIX+XB.3.lXgXnXgXjXK.G N.[ c.V K MXzXjXjXmXgX' F.mXgXsXgXaXgXgXgXgXgXaX",
"dXaXaXaXaXaXaXgXgXpXdXt.0.BXgXdXgXnXtX9.SX'.M.SXn.kXjXbXmXGX&X~ ] BXSXhXCXjX`.Y.JX3.,X XL.lXgX8XnXjXpX0.D.dXdXpXgXgXgXaXaXaXaXaX",
"aXaXaXaXaXaXaXgXbXgXdXr.4.mXgXdXhXGX2XpXLXW.F.BXuXzXhX<XMXGX%XG.' ZXvXjXdXmX5XnXGX8.@XlXpXaXBX2X<XBXpX5.D.HXpXjXgXgXaXaXaXaXaXaX",
"dXaXaXgXaXaXgXgX6XjXgXB.q.JXhXJ.K.!.e.}.NX/.b.6Xs.J.K.,.<XJX.Xt.! zXVX$XJ.{.x.!.ZX8.+XLX!.e.P.>.Y.fXaX6.D.jXsXjXgXgXaXaXaXaXpXpX",
"aXaXaXgXaXgXgXgXjXgXgXn.q.pXQ.K.b t G H.SX].U Q.7.r p %.L.jX+X) ^ gX!.H.$.6 V >.<Xw.@X'.s.*.% V ;.$XmX] F.DXgXgXgXgXaXaXaXaXpXpX",
"aXaXaXgXgXaXaXgXaXjXgXm.0.6XQ.*...%.j J <X].>.K...G G h J &X&XS.! lX'.*...k V 6 `.n.+X;X*.$.%.k N :.aX6.M.mXpXgXgXgXaXaXaXaXgXpX",
"aXaXaXgXaXaXaXgXgXgXNXq.0.pXs.7.v g k H.'.OXU t.*.l 6 $.].>X.X{ / sXJ.s.P 8 f L.T.[ +XL.,.$.g 6 H.`.;X0.M.mXjXaXgXgXaXaXaXaXgXaX",
"aXaXaXgXaXaXaXgXdXjXgX0.8.BX;Xt.J.:.Q %XKXF.E.5Xe.Z.b.;.gXHX|.t.W zXVXH.L.n.:.`.LX3.+XBXI.t.0.7.N.LXpX3.M.bXaXgXgXgXaXaXaXaXgXaX",
"aXaXaXaXaXaXaXgXaXgXgXr.' kXzX1XrX).gXpXSXT.T.lXhX.X'.BXGXJX X] L dXSXxXVXZ.AXnXGX4.OXKX>XlXZ.pXnXnXaX3.v.mXgXjXgXgXaXaXaXaXgXaX",
"gXgXgXgXpXpXsXsXgXjXgXq.! jXjXBX,XU.GXgXDXI.U.GXmX+X9.`.J.1X.Xt.L zXQ.Q.H.:.jXmXmX4.+XGXjXjXB.tXjXmXaX4.v.mXgXgXgXgXaXaXgXaXaXaX",
"gXgXgXgXpXpXsXsXgXgXpXw.! gXgXmX,XU.GXgXmXI.U.FXSX_.P f 6 H.[.5.Z rXe.0 6 P tXVXmX3.[.GXjXjXB.pXBXmX2X3.9.bXgXdXgXaXaXaXaXaXaXaX",
"aXaXgXpXpXpXgXgXdXjXgXm.] jXjXmX,XU.GXgXmXA.A.GXmX|.Q H.e.Q.Y.G.D wXH.;.:.~ iXbXmX' [.GXdXjXm.pXjXmXaX0.v.mXgXpXgXgXaXaXaXaXaXaX",
"aXaXaXpXpXpXgXaXgXjX6Xw.U pXjXBX,XA.DXgXmXV.A.GXmX[.).zX{.LX|.i.1 rXPX<XkXS.gXmXmX' [.GXdXjXr.pXjXmX2X4.[ mXgXgXgXgXaXaXaXaXaXaX",
"aXaX7X7XpXgXgXgXdXjX2Xw.L 6XjXBX:XB.DXdXmXn.A.GXGXW.Q.*Xb t.U.~.1 :XJ.;.5XS.mXdXbX' '.GXjXlXq.tXNXmX2X4.' bXgXgXgXpXpXaXaXaXaXaX",
"aXaX7X7XaXgXgXgXaXjX6XS.U 7XjXmX;XV.DXdXmXq.A.GXBX[.E.<X3.b.Y.i.1 %X7.e.lXn.SXmXbX! ).GXjXlX0.pXlXmX2X0.~ bXgXgXsXsXpXaXaXaXaXaX",
"aXaXaXaXaXaXgXgXgXdX<Xu.D 2XjXBX;Xn.mXjXmXq.B.BXGX).'.zX XiX/.p.+ .XiX$XjXm.zXVXdXY ).FXjXjX8.pXBXmX,X4.W aXgXjXaXpXpXaXaXaXaXaX",
"aXaXaXaXaXaXgXgXaXdX<XS.D 2XjXBX;Xr.mXjXmXq.B.BXZX_.W.aXOX4XY.oX+ .XjX|.VXq.dXFXbXY W.DXgXgX3.pXlXmX2X0.W dXgXgXaXpXpXaXaXaXaXaX",
"aXaXaXgXaXpXpXaXaXjXrXt.x rXmXdX+Xw.bXbXlX{ n.GXGXR.R.gX].fXD.i.+ {.1X'.SX9.jXlXjX_ Y.VXdXgX{ pXjXbX>X6.D pXgXgXgXgXgXgXgXaXpXpX",
"aXaXaXaXaXpXpXgXaXBX,Xu.x >XmXjX}.w.HXmXjXw.q.JXBXE.E.pXW.eXD.i.+ Y.6X'.fX9.fXHXhX_ Y.VXdXfX] <XjXbX+Xu.D pXgXaXgXgXgXgXaXaXpXpX",
"aXaXaXaXaXpXaXgXtXGX;Xy.1 }.BXjX;X4.jXdXlX{ 8.JXHXA.R.tXE.eXn.j.+ M.;XT.lX' pXJXjXL Z.JXaXfX] <XjXHX[.6.2 <XbXjXaXaXaXaXaXaXaXaX",
"aXaXaXaXaXaXgXgXjXsX+Xi.1 ].mXGX].4.jXHXpX6.8.BXGXA.U.tXm. XA.oX@ c.[.R.gX! pXmX<X) M.mXBXpX_ ;XGXaX[.i.2 ;XdXpXaXaXaXaXaXaXaXaX",
"aXaXaXaXgXaXgXgXaXjX[.6.@ '.JXjXW.U BXmXtX) ] lXGXq.D.+X~ {.r.` X ^ }.[ tXU <XLX:XF 9.bXnX<Xc ,XjXGXW.6.# ;XmXmXgXgXgXaXaXaXaXaX",
"aXaXaXaXgXaXgXgX7XjX/.G.@ Y.BXdXW.x eXBX<X) F fXmX8.~ ,X:X<XA.j.# C fX2X<X- }.KX-X_ ~ bXBX[.m T.GXmXW.p.X |.dXpXgXgXgXaXaXaXaXaX",
"aXaXaXaXaXaXgXgX7XjXE.i.@ 9.GXgX].I.|.;X).u.- fXGXOXR.;XmX;X4.h.- O <XKX>XS.!.eXW.6.Z BXHX1X~./.=XtXA.p.X Y.mXpXgXgXgXaXaXaXaXaX",
"aXaXaXaXaXaXpXgXnXsXU.oX1 I JXmXFXFXzXGX)._ . c.[.OXtXpXmXW.S.j.x   [.BXJXFXDXGXT.c . Y.$X>XyXhXjXyXU.i.+ c.FXjXgXgXgXaXgXaXaXaX",
"aX7X7XaXaXaXaXaXjX2Xw.0.. . '.;X<XsXmXjXsX2X:X;X+X+X-X3XzXL.oXk.D . D.JXjXjXdXbXtX<X;X}.].}.=X:XjX-Xu.] . S  X<X2XaXgXjXgXaXaXaX",
"aX7X7XaXaXaXaXaXjX2XS.r.9./ I I 3.n.U.'.;XtXjXGXGXjXmXMXlXN.oX` Z . [ JXjXHXLXJXJXHXHXHXGXDXmXmXBX:Xu.w.' ^ W ! q.A.).;X2XaXaXaX",
"aXaXaXaXaXaXaXaXpX6XmXFXNXkXjXdXgXmXbXgXaXgXgXdXjXjXsXMX,XA u.1   .   A E / B.R.+X;X<XpXgXdXdXjXsXaXMXvXBXlXjXjXgXgXaXaXaXdXdXdX",
"aXaXaXaXaXaXaXaXgXmX6X2XgXyXaXaXaXdXgXgXgXgXjXjXcXjXjXmX2X'.I.w.M.c.9.~ ~ ~ ~ 9.q.n.B.T.].;XpXgXjXgXdX7XgXgXpXaXgXgXgXdXdXaX7X2X",
"dXaXaXaXaX7XaXaXpXpXaXdXaXgXjXaXgXgXgXgXgXdXdXgXvXpXjXgXbXmXGXJXJXVXBXJXmXmXBXmXmXmXmXjXjXjXgXgXpXgXgXjXjXpX2XmXdXgXaXaXaXaXdXdX",
"dXgXaXaXaX7XaXaXaXdXpXdXpXgXgXgXdXdXgXaXgXdXdXgXdXjXsXgXaXmX2XkXgXjXdX2XFX7XgXgXgXgXgXgXgXgXgXgXjXpXgXgXgXpXmX2X7XaXaXaXaXaXaXaX",
"dXgXaXaXaXpXpXaXaXdXpXhXaX6XaXsXgXgXgXgXgXgXdXdXhX6XdXgXgXaXMXgXdXjXgXjX6XmXdXmXgXdXdXdXgXgXgXgXaXgXsXsXjX6XpXgXaXaXaXaXaXaXaXaX",
"jXgXgXgXaXpXpXaXaXpXjXsXaXaXpXjXgXaXaXaXdXaXaXaXgXMX7XmXjXsXdXjXjXgXjXjXdXjXgXgXdXgXdXjXdXgXgXgX7XdXgXgXpXdXsXjXaXaXaXaXgXgXaXaX"
};
