/* XPM */
static char *_8e4cf98973c40af8e42c2b6e325a7b9xcTTkbVFU2JMbjyw[] = {
/* columns rows colors chars-per-pixel */
"64 64 256 2 ",
"   c #0A0935",
".  c #150B36",
"X  c #100C37",
"o  c #2F0539",
"O  c #151849",
"+  c #2F1551",
"@  c #1A2658",
"#  c #152C53",
"$  c #262558",
"%  c #2E2E52",
"&  c #173768",
"*  c #123471",
"=  c #2F346D",
"-  c #211C65",
";  c #4F0C54",
":  c #6E0855",
">  c #513056",
",  c #4D336A",
"<  c #6F326D",
"1  c #6A1F60",
"2  c #1A4677",
"3  c #155173",
"4  c #2E4974",
"5  c #16657C",
"6  c #38536B",
"7  c #6D4A58",
"8  c #4F4C70",
"9  c #6C5172",
"0  c #6E6C79",
"q  c #545666",
"w  c #D91E31",
"e  c #E65236",
"r  c #EF7332",
"t  c #DC5935",
"y  c #8F0758",
"u  c #B20955",
"i  c #940665",
"p  c #A90365",
"a  c #B90367",
"s  c #AD1774",
"d  c #903370",
"f  c #AB2575",
"g  c #B22F71",
"h  c #AD2A50",
"j  c #CA055D",
"k  c #D11553",
"l  c #D22F4F",
"z  c #E22B51",
"x  c #C50365",
"c  c #D10B67",
"v  c #DD2C7B",
"b  c #CE3073",
"n  c #E32C7C",
"m  c #E92979",
"M  c #E4327D",
"N  c #EB347C",
"B  c #ED397C",
"V  c #E73375",
"C  c #F3377B",
"Z  c #F22A71",
"A  c #E71162",
"S  c #8D5051",
"D  c #8F4A71",
"F  c #AE5073",
"G  c #8F6D70",
"H  c #AD6F72",
"J  c #A86450",
"K  c #D2504E",
"L  c #E7514B",
"P  c #EA714F",
"I  c #CF4F73",
"U  c #E9477B",
"Y  c #F4497C",
"T  c #EA5778",
"R  c #F45979",
"E  c #EA506C",
"W  c #D57176",
"Q  c #EC6868",
"!  c #EC786A",
"~  c #F37669",
"^  c #F26777",
"/  c #EE6D74",
"(  c #D0704C",
")  c #649F79",
"_  c #60D279",
"`  c #2D8A7C",
"'  c #F4873A",
"]  c #F28F38",
"[  c #FCA437",
"{  c #90B16E",
"}  c #B4B575",
"|  c #AF9B6C",
" . c #F39A45",
".. c #F6975A",
"X. c #F08A4F",
"o. c #F7A349",
"O. c #F7A759",
"+. c #F1B258",
"@. c #D19372",
"#. c #F18D6E",
"$. c #D1AE70",
"%. c #F6A866",
"&. c #F8B667",
"*. c #F7B777",
"=. c #EEB072",
"-. c #D39753",
";. c #AFD16F",
":. c #93D978",
">. c #F9C96C",
",. c #1A3D82",
"<. c #14538A",
"1. c #2A5787",
"2. c #275794",
"3. c #2E4E8C",
"4. c #196887",
"5. c #116F96",
"6. c #28699A",
"7. c #2F6F90",
"8. c #1175A7",
"9. c #3071A5",
"0. c #4C5493",
"q. c #6C4C8B",
"w. c #556D97",
"e. c #6F6D8A",
"r. c #4A74AB",
"t. c #7371AE",
"y. c #6E4CAB",
"u. c #7959D4",
"i. c #754DCF",
"p. c #5477D4",
"a. c #696BD4",
"s. c #685CE7",
"d. c #5B48BD",
"f. c #AD338B",
"g. c #A0268E",
"h. c #D43A84",
"j. c #E73783",
"k. c #F03281",
"l. c #C51A82",
"z. c #96518D",
"x. c #AE508C",
"c. c #92718C",
"v. c #AE7291",
"b. c #8E53AE",
"n. c #896DB3",
"m. c #AE78BC",
"M. c #D14E8F",
"N. c #F0528A",
"B. c #D16696",
"V. c #F06E8C",
"C. c #D571A5",
"Z. c #E972A3",
"A. c #855CCD",
"S. c #9271D1",
"D. c #A36EC3",
"F. c #168E9B",
"G. c #319095",
"H. c #2EAF96",
"J. c #0E8FAC",
"K. c #2F8FB1",
"L. c #15B0B3",
"P. c #28A6BB",
"I. c #2AB9BA",
"U. c #32B1B1",
"Y. c #0FAB9A",
"T. c #538C92",
"R. c #6F8B8E",
"E. c #52AE89",
"W. c #6DB393",
"Q. c #5093AF",
"!. c #6F8EAD",
"~. c #4CB3AF",
"^. c #73A9B3",
"/. c #2AC3BD",
"(. c #36C3BB",
"). c #37CBA7",
"_. c #36C593",
"`. c #4ECC94",
"'. c #72D28B",
"]. c #4AC6B8",
"[. c #53C8BB",
"{. c #54D0AD",
"}. c #69D4B5",
"|. c #72D4B0",
" X c #79E1BC",
".X c #3C97D5",
"XX c #3495CE",
"oX c #31B4CA",
"OX c #1BB2D3",
"+X c #4698D4",
"@X c #4C8DD0",
"#X c #4EAECF",
"$X c #61AED9",
"%X c #2FC4C7",
"&X c #22C6D0",
"*X c #58C8C4",
"=X c #48C7CA",
"-X c #71CFC9",
";X c #76E3C3",
":X c #66D7DD",
">X c #8C8C92",
",X c #B2928B",
"<X c #B0B292",
"1X c #8D90A4",
"2X c #AC95AA",
"3X c #B1B0B1",
"4X c #8FACA3",
"5X c #CD8B92",
"6X c #EF908C",
"7X c #D0B28D",
"8X c #F2AE89",
"9X c #F08EAA",
"0X c #F2B1B4",
"qX c #CDA2B1",
"wX c #90D28A",
"eX c #8ADAB8",
"rX c #AED6B4",
"tX c #8EE6BC",
"yX c #B0EAAD",
"uX c #A1D98E",
"iX c #F6C998",
"pX c #F8CD8F",
"aX c #CECDB4",
"sX c #F9D7A8",
"dX c #F0CFB2",
"fX c #CFE8B4",
"gX c #F8EAB7",
"hX c #DCD290",
"jX c #8DB0CE",
"kX c #B2B4D0",
"lX c #A591D1",
"zX c #D6B3C8",
"xX c #86D7C6",
"cX c #90D2CF",
"vX c #AFD5CC",
"bX c #99E4C7",
"nX c #8FE6CF",
"mX c #A8E5C8",
"MX c #B3EBCF",
"NX c #98DAE3",
"BX c #CDD5CD",
"VX c #F0D0CA",
"CX c #D8F4D9",
"ZX c #CDEAD0",
"AX c #F8E9C7",
"SX c #FCF4CA",
"DX c #F8E9D6",
"FX c #EAF6D9",
"GX c #F6FBDC",
"HX c #FBFCDC",
"JX c #F9F6D6",
"KX c #E8EACD",
"LX c #FBFEE2",
"PX c #F8FCE5",
"IX c #ECFDE6",
"UX c #C5F2E5",
/* pixels */
"s f f f f f f f f f f f f f f f f f f f f s s f f f f f f f f f f f f f f f f f f f f f f f f s s s s s f 7X'.J.8.* * , n U $.:.",
"F H T T N m n n n n n v v v n j.B.B.C.C.h.C.C.M.C.M.M.M.B.B.N.v n n n n n n n n n n n n m m j.N.N.N.N.V.k.m <XU.5.& & , W uX`.` ",
"w.H.'.:.$.W M n n n n v v v n j.C.B.B.9XM.C.B.M.C.M.B.B.M.M.M.v n n n n j.n v n n n n n N.9X0XfXyXyXyXyX7XN.W '.4.@ @ ) '.5.<.<.",
"f.r.J.H._.'.7XN.n n n n v n M M j.j.v v v v v M j.j.M M j.v v M M n n n M M n n n n m N.dXyX}.{.H.Y.H.H.).~.T.H.4.$ 4 7.3 * & = ",
"k.j.x.8.J.J.`.7XU N j.N M M n M j.n N N N N M M M M N N N N N N N N N N N N N N N m N.aX{.Y.F.K.J.J.5.<.<.5.5.5.2 @ & & $ , d b ",
"j.k.j.z.9.8.J.`.} U N N m B T T T T N.B N B B B j.B B B N N N N N N N C N N N N m N.rX/.J.K.x.q.2 = d < $ = 1.2.@ 6 G > & R.| @.",
"N j.k.Z x.8.8.J.'.@.M V W ;.:.wX:.:.;.@.T C N N B B k.N N N C C C C C N m m N m B dX).9.z.M.k.g g v N n B.rXE.= 8 ,X8Xg = 5 G._ ",
"N N N N j.q.5.8.`.;.U @._ _.L.J.J.Y.H.H.W.@.C N N B B B B N.z.< 1 z.M.N.N.C m m T 7Xc.h.C C N C C C m V.fX`.5 9 KX@.h s g.- * 4.",
"W W T T C h.3.<.F.:.@.'.F.8.8.8.9.9.q.w.G.~.B.C B C N N V.2X<.<.4.4.G.2X3X0XV.N.N U Z C B B B B C N V.KX{.5.$ 7XgXg + f l., & & ",
"'.'.'.wX} T f.3.5.`.U.F.2 2 d d F I C B M.x.M.Z B N.0XqX2X6 3 R.R.6 # # 4.w.vXDX9X9Xj.C C B C C C M 0XtXY.5.$ H I ; O s l.h., & ",
"J.J.J.L._.'.W 4 <.5.F.* = F T Y C C U B C Z C V.0XHX3X1Xe.# R.0 > R.5 5 3 O 2 cXPXHXVXZ.N.C C C C N.aXU.J.<.@ < 6XG + ; f N.g < ",
"1.5.5.5.8.F.E.7.2 2 <.5 E.;.;.;.@.V.C C C N.0XDXLXKXR.>X>X8 q O 6 q # 5 6 3 4 <.R.DXLXGXVXV.C C V 9XeXY.4.@ @ I N.N.> O d Y Y U ",
"f.D D & 4 2 <.<.* * <.5.G.H.H.H.).'.@.U 9XDXGXGXHXvX7.0 e.6 O . > .     R.6 3 . & ^.GXHXLXDX0XN.Z 6X}.J.<., , U B k.g + > U Y Y ",
"U C U H | ` * - , e.w.2 <.* * <.5.P.`.uXgXLXJXJXHXvX5 # % <X7XP t h ;   R.6 5 3 4.F.UXHXGXHXLXVXN.8X`.J.3.F x.Y U U R F % g R R ",
"N./ $.:.) 7.>X>XF sXiXq G.G d < , <.8.H.'.fXLXJXJXKXR.  >XLXSXO.] r u 2 ` . O & 3 # 4XHXGXJXJXLXDXfXH.0.9 F V.V.V.V.V.#.> , V.V.",
"W ;._ Y.<., 8X5X+ D I , Y.:.~ C B.4X4X6.8.'.FXLXLXKX1X  e.gXpX-.S S k 1 O 3 3 # 2 <.9.^.GXHXGXGXHXyXJ.q.F I R Y N.N.N.Q S $ F R ",
";.`.J.8.2 < f : + ; 1 = 5._.;.6XVXPXLXcXQ.P.yXAX9XJXaXq e.,XiX^.Q.!.e.x.8 # # 3 3 & @ 6.vXJXJXGXJXuX5.0.Y R ^ ^ ^ ^ ^ ^ P % d ^ ",
"`.J.8.6.q.I f + + g U , & 8.H.uXKXPXPXPXJX<X-.K W 5X8XFX^.4XZX*XnX8.<.v.1X4.3 5 5 5 5.6.XXUXHXPXGXwX5.3XV.Y Y Y Y R R T Q S > Q ",
"J.J.r.I B.V.R + > T R v.2 <.J.`.hX0X9XVX7Xl w g x.u 0XnX8.T.aXcX:XL.U.b y & = 3 F.F.5 2 OXjX0X9X0X'.8.BX0XT R R R ^ ^ ^ ~ ( > W ",
"8.e.B.^ ^ ^ F $ F Q R ^ z.q.8.J.'.@.N.9X5Xu p : g E #.xXOXrXz v.cXnX2Xc a : ; : . . . 4 6.v.N.N.V.'.w.V.9X9XR R / ^ ^ ^ ^ ! 7 7 ",
"w./ ^ ^ ^ V.< $ / ^ ^ ^ / 2X<.8._.uXDXJXAXb i : qXsXK G MXdXh K %...P j x p : o X X . & w.KXAXDXDXcXcXDXDXVXV.R / / / / / ! S > ",
"G ^ ^ ^ ^ ^ < $ Q ^ ^ R 0XZX!.8.H.uXPXPXPX0Xy + v.E D   1XDXV.K X.[ ' c x g >X0 X X . 8.=XBXHXHXHXFXFXLXLXPXdXR ^ / / / / ! ( > ",
"~ ~ ! ! ~ W , F ~ ~ Q V.JXLXCX<.F.uXPXPXPXgXK ; y b aX$ 8 qXI x.K [ ' j c 5Xq 0 0   . 2 K.K.cXFXHXJXHXGXPXLXPX6XQ ~ ~ ~ ~ ~ P S ",
"Q Q Q Q ~ F $ Q ~ Q Q VXPXPXFXQ.F.uXLXLXPXSX..: : B.nXT.= aX0XP ] [ P x p 3X$ e.>X  . $ # 4.R.3XKXLXGXLXLXPXPXdXQ Q Q Q ~ ~ P J ",
"#.#.#.#.#.J , W #.~ 6XDXDXDXDXvXF.wXDXDXDXGX%.u : 0XZX4 X 0 HXpX[ t k i + 9 aX>X% . . O 1.5.cX1X3XJXDXDXDXrXfXDX6X! #.#.#.#.#.( ",
"! ! ! ~ ~ S D #.~ ~ R T T R R T G.{ R R V.iXL y g ^ dXq 2 O 9 J h p ; : p y % X   X . O 9.@ 2 D R Y Y Y R { _ ,X6X! ! ~ ! ! #.( ",
"! ~ ~ ~ P 7 S #.~ ! 0X0X0X0X0XdX~.'.0X0XVXiXh < 0XdX3X3X4.O     + B.h u a p o X . . . @ & 6.K.w.0X0X0X0X0XaXH.~.AX#.Q ~ X.~ X.P ",
"! ~ #.{ ) > G ..P 9XPXPXPXPXPXPXBXZXPXPXGX! p z.GXPX!.^.3 4 .   $ aX..e l x :   X . . 4 O O K.%XCXHXPXLXPXJXW.5.jX6XX.} { { @.X.",
"#.#.#.| 0 = G.W.-.6X6X#.#.#.#.#.#.#.#.8XAXK p I #.8XcXK.5.4 .   O BXpXr r k a : ; . X . . @ * c.#.~ @.uXrXfXuX5.1.<X) F.K.R.@...",
"#.#.#...S , 9.J.W.#.6X6X6X6X8X8X8X8X8XdXiXl i 6X8X8X8X3X~.2 . X   e.gX' r L c x a i < $ . # w.@.#.@.E.G.4.4.G.4.* 4 1.G W X.....",
"%.%.....S 7 ,X6.G.hXSXKXKXDXDXDXJXDXDXPX#.u f VXGXDXDXvX^.3 3 @ . 0 gXX.' L j a 5X9Xs d q.@ 8 BXJXBXvXKX3X>X7.* 8 4 T.$...%.%.=.",
"......X.S 0 +.0 5.) wXW.W.} %.%...=.dX*.t a I %.%.%.%.rXfXh % 3.y W #.X.L l l I DXI t P I @X2 = @.#.#...O.{ 7.>XH < 2.G.} O.O.O.",
"....$.-.7 G.G.6.<.4.5.7.7.E.) =.*.AXaXe k a W pX8X=.iXiXX.w q.t.l P ! iXX.X.P dXqXl pXsXL f.@X@ G =...O.{ 4.1.W 1 d c.6.F.} +.O.",
"%.O.W.) 7 5.5.) c.7.T.@.@.7X~.eXAXCXBX5Xb a 2XPXPXPXgXr u f jXI X.r 8XpX .o.Q VXM.8XgX%.] z b.K.& vXSXuXF.w.<X0Xc.9 =.$.R.K.} &.",
"+.&.$.J = R.@.D d D 4.uXgXgXVXBXdXbXnX=XP.K.oXaXAXAXX.k p v.qXP  ...+. . .X.8XVXZ %.&. . .l a a.5.cXHXW.T.dXSXJXdX0 sX>.*.W.<X&.",
"+.+.O.J q $.O.H 9 @.w.F.<X*.%.%.8XKX| T.8.8.~.iXsXO.l p f VX#.] O.gX&.]  .P 9XVXL o.O. . .P j b.oXc.%.) @.&.=.=.%.G @.>.>.8X8X*.",
"+.+.+.7 G >.&.7 $.SXBXK.G.fXDXAXJXsXr l s 2XKXgXO.l x : 2XsXX. .O.%. . . .Q 0XVXL o. . . .r x g.:XdXdXrXAXAXAXAXSX3XG >.*.m.m.*.",
"+.>.-.7 $.>.@.G >.JXPXCXQ.vXPXGXPXsXr k a 0XsXL l x i O 2X..]  .o.o.o.o. .M.GXVXL o. . . .r k a n.UXLXPXLXLXPXLXPXdXS =.>.m.D.7X",
">.>.-.7 >.>.G @.>.AXLXLXvXvXHXJXJX>.r c i d h a a i . 8 KX.. . .X. .O.+.Q Z.LXVXL X.P  . .r k x g.NXHXGXHXHXHXJXJXdX9 | 7Xm.D.m.",
">.>.J 7 >.>.G $.>.pXGXGXPXFXGXGXSX .t c : O + p a : O 3XgX&.o.L L *.>.+.E VXLXdXz h S  . .' k x g.NXHXJXJXHXBXlXkXD.y.q.D.D.D.D.",
"S.n.S q.S.n.q.D.n.n.S.S.S.S.S.kXSXX.e x ;   1 p i ; e.HXgX&.X.k ! gXsXL Z.GXLXdXc i ; P  .' z j g.$XS.S.S.S.A.i.i.A.A.< A.A.A.A.",
"s.c.J y.i.y.y.i.A.lXlXu.i.i.i.lXSX' r y ; + ; a p b.KXqXpXo.K l sXgX#.v VXHXLX3Xc p X 7 O. .L j s @Xa.i.i.i.i.i.i.i.u.q.y.A.u.u.",
"s.H 9 u.u.q.n.lXkXBXjXvXS.S.u.lXpX' l ; 1 : i f.y.jXPXb P r k I SX6Xc 9XHXHXZX#Xf.a + + =.O.r l x z.@Xi.u.lXzXlXS.u.i.y.q.u.u.u.",
"s.H 8 s.A.9 C.Z.B.B.M.Z.Z.Z.S.S.&.r j y a f.b.a.p.BXLX9XA k u b T A Z.GXGXLXxX&Xt.c : . H pX] P j z.$Xu.u.n.>XqXBXkXkXlXq.u.u.u.",
"a.H 8 p.t.q.b.f.f.f.f.f.f.b.p.p.c.I g.f.b.p.@Xp.p.FXHXLX9XM.M.M.N.VXHXGXHXCXI.L.oXf.y O 8 sX .' z f.$Xp.a.d.= r.0.e.kXaX,Xt.a.a.",
"!.( 8 +Xt.w.+X+X.X+X.X.X+X+X+X.X@X@X@X@X@X@X@X@X.XvXHXJXHXHXGXGXGXHXHXGXFX-XP.P.P.w.s : = aXO.' L x t.+X@Xr.r.@X3.0.a.8 1Xc.kXkX",
"^.( 8 +Xw.r..X+X+X.X#X+X$XjX.X#X.X.X+XXX.X+X+X+X.X.XZXJXZXHXHXHXHXGXCXnX=XI.P.P.K.1., 7.2.^.dX] r j n.$X@X+X+X+X3.0.@X= p.9 @.dX",
"!.J r.+X9 Q.+X-XcX#XcX-X#X-XcXcX#XjX$X+X+X+X+X+X+XXX$XbX*XxXbXcXmX-XI./.I.P.P.K.= + $ 6.9.+XBX%.] L s $X@X@X+X+X9.r.@X3.@X3.9 t.",
"R.7 .X@Xw.oX#X#X*XcXU.I.*X-X-XxX-XcX-XcX$X+X+X+X+X.XXX#XNX].L.L.L.L.I.oXP.P.K.4 + = 1.= 9.+XcX8X' r b $X+X+X+X+X+X+X+X+X@X2.e.w.",
"R.7 oXR.w.oX-X#X-XbX*XbXMXmXCXmX-X#XcXcX-XcX#X#X#X#X#XXX#XZX[.L.I.K.6.1.4 4 $ + + 4 6.$ #X#X#XhXX.r k n.#X#X#X#X#X#X#X#X#X#XQ.w.",
"W.7 %XR.T.;XxX-XMXCXZXvXLXBXFXLXGXmXbXcX(.-X-X~.#X#X#X#XoXcXMX(./.I.G.4 4 = 3.3.= 4 6.$ #X=X#XrXX.e L g.$X=X#X#X#X#X#X#X#X=X~.e.",
"4X7 [.>XW.nXFXGXvXBXw.,.!.w.w.!.BXvXcXLXCX-X*X*X=X[.[.].].*XCXmXI././.%XoXI.oXoX= 4 6.4 =X*X=XtX#.k r k f.$X*X[.*X*X[.[.[.[.].0 ",
"4X7 -X<XrXCXKXBXw.3.3.3.,.w.3.* r.kX0.BXKXGXmXcXeX}.].{.{.].MXZX(././././.%X/.oX6.= 2.4 =X*X[.nXpXt r L a $X;X X;X;X;X;X;X X|.G ",
"7X7 ZX>X1XFXw.3.3.6.3.3.2.9.3.3.3.t.,.3.9.kXHXGXHXCXbX[.[.].}.JX-XL.(././.I.oXoXoX6.- 4 P.*X}.}.CX*.r t x n.:XxXxXxXxXxXxXeX XG ",
"7X7 ^.9 2.r.3.2.2.Q.2.9.9.K.2.6.9.<.2.3.<.3.!.BXKXKXHXCXxX=X}.KXZX*X(.I.I.oXI.oXoXK.$ 4 K.=X].(.;XJX..r k f.=X].[.[.].].-X[.].T.",
">X7 G.9 9.6.9.9.K.~.9.9.P.P.6.9.K.6.K.9.6.6.<.9.r.r.jXBXvXCXFXJXJX-XI.I.U.I.(.I.P.P.1.+ K.=XxXnXnXIX=.r z g.$XMXZXMXZXMXbXmXnXW.",
"T.7 T.9 ~.U.U.~.~.~.[.~.K.K.P.6.K.K.9.K.K.K.K.6.9.2.9.2.9.!.!.vXJXmXbX[.I.I.(.I.P.P.K.$ $ XX:XmXtXtX=.r e x t.:X|.|.eXeX|.}.{.{.",
"R.7 G.9 |.tX}.{.{.).{.{.{.~.-X~.U.U.U.~.[.[.~.~.~.~.~.U.~.U.J.-XHXmX-X(./.(././.%XP.P.6.+ 2.OX(.).).uX' r j g.=X{.`.}.|.}. X|.{.",
"R.7 K.0 eXMXbX].}.eX}.{.{. XmXZXxX-X~.~.}.{.{.{.{.{.}.eX}.{.}.KXHX-XL./.%X/./.(.I.I.L.1.+ = XX%XxXbXeXr r l l.$XbXbXmXbXeXmXeXtX",
"<X7 K.) eXCXMXMXCXPXCXeX{.}.{.}.MXFXmXmXtX}.|.|.}.}.CXLXCXvXZXHXFX*X/./././././.&XK.K.8 ; + <.OXxXrXeX| r e a jXMXrXbXmXmXMXZXGX",
"hX> 0.ZXGXSXgXsXsXiXgXIXCXbXeX}.{.}.cXmXeXbXmXBXZXKXsXiXsXFXiXgXFX(./././././.I.!.b c a a p ; 8.=XeXMXKXX.e x b.nXbXxXmXSXsXsXpX",
"=.> 8 *.>.&.o. . . .O.pXsXSXLXCXmXbXfXKXMXmXmXfXdXsX8X8XiX8XL W MX(././././.%Xz.A A A x x x p = oXUXSXsX&.e j z.vXiXiXpXO.]  .] ",
"] > , ] [ o.o.o.o.o.o. .o.&.*.*.8XiXsXsXSXSXgXsXiX8X=.=.%.e w k ^.&XI.L.(.[.v.Z L L z c x x x : <.-X&. .o.r z g.2X+.o.O.O.&.>.pX",
"] > ,  .o.o.o.o.o.o.o.o.o.o.O.*.8XsXdXiX=.P t t e w w w w k j j z.%X*X-XmXgXgXiX' ' r e k x x p 1 Q.$.o.%.O.L a t.ZXAXMXvXNXzX6X"
};
